<?xml version="1.0" encoding="utf-8"?>
<!-- Generator: Adobe Illustrator 21.1.0, SVG Export Plug-In . SVG Version: 6.00 Build 0)  -->
<svg version="1.1" id="Layer_1" xmlns="http://www.w3.org/2000/svg" xmlns:xlink="http://www.w3.org/1999/xlink" x="0px" y="0px"
	 viewBox="0 0 1640 924" style="enable-background:new 0 0 1640 924;" xml:space="preserve">
<style type="text/css">
	.st0{fill:#FFFFFF;}
</style>
<g>
	<path class="st0" d="M467.3,733c0-180.2,0-360.3,0-540.5c235.2,0,470.4,0,705.6,0c0,180.2,0,360.3,0,540.5
		C937.7,733,702.5,733,467.3,733z M827.6,440.2c-26.6,0-53.1,0-79.7,0c-4,0-4.2,0.3-4.2,4.2c0,17.6,0,35.2,0,52.8c0,1,0,1.9,0.1,2.9
		c0.2,1.9,1,2.7,2.9,2.9c0.9,0.1,1.9,0.1,2.9,0.1c23.6,0,47.2,0.1,70.8,0.1c28.9,0,57.9,0,86.8,0c4.3,0,4.7-0.4,4.6-4.7
		c0-17.8,0-35.7-0.1-53.5c0-4.4-0.4-4.8-4.8-4.8C880.5,440.2,854,440.2,827.6,440.2z M938,291.3c-0.8-2.2-2.3-2.4-4-2.4
		c-10.5,0-20.9,0-31.4,0c-1.3,0-2.6-0.1-3.8,0c-2.2,0.1-2.8,0.7-2.9,2.9c0,0.6,0,1.1,0,1.7c0,3.9,0.1,7.8,0.1,11.8
		c0,13.1,0,26.2-0.1,39.3c0,3.9,0,7.8,0.1,11.8c0,2.2,0.7,2.8,2.9,3.1c0.9,0.1,1.8,0.1,2.6,0.1c9.4,0,18.7,0,28.1-0.1
		c1.7,0,3.4,0.1,5,0c2.4-0.1,3.1-1,3.1-3.3c0-20.4,0-40.8,0-61.2c0-0.8,0-1.6,0-2.5c0.3,0.3,0.4,0.6,0.4,0.9
		c0.1,20.4,0.2,40.8,0.3,61.1c0,3.6,0.7,4.4,4.3,4.5c0.3,0,0.6,0,1,0c8.6,0,17.3,0,25.9,0c0.6,0,1.3,0,1.9-0.1
		c1.7-0.2,2.4-0.9,2.6-2.6c0.1-1.7,0.2-3.4,0.2-5c0-18.6,0-37.1,0-55.7c0-1.3-0.1-2.6-0.3-3.8c-0.3-2.6-0.8-3-3.3-3.1
		c-1.8,0-3.5,0-5.3,0c-7.8,0-15.7,0-23.5,0C940.2,288.9,938.6,288.9,938,291.3z M876.3,436.4c0-1.5,0-2.6,0-3.7c0-1.2,0-2.4,0.1-3.6
		c0.3-3.4-0.6-4.5-4-4.6c-0.5,0-1,0-1.4,0c-3.1,0-6.2,0-9.4-0.1c-2.2-0.1-2.6-0.6-2.7-2.8c-0.1-2.7-0.1-5.4-0.1-8.2
		c0-1.9-0.1-3.8-0.3-5.7c-0.1-1.9-0.5-2.2-2.3-2.3c-0.6,0-1.1,0-1.7,0c-9.9,0-19.8,0-29.7,0c-7.8,0-15.7,0-23.5,0
		c-4.1,0-4.5,0.4-4.4,4.6c0.1,3.8,0.1,7.5,0.1,11.3c0,2.8-0.4,3.2-3.2,3.2c-4.2,0-8.3,0-12.5,0.1c-2.4,0-2.7,0.3-2.7,2.8
		c0,1.8,0.1,3.7,0.1,5.5c0,2.2,0.4,3,2.5,3.3c1.6,0.2,3.2,0.2,4.8,0.2c29,0,58,0,87.1,0C874.1,436.4,875,436.4,876.3,436.4z
		 M849.4,323.9C849.4,323.9,849.4,323.9,849.4,323.9c0,10.2,0,20.3,0.1,30.5c0,4.5,0.5,4.9,5,4.9c11.5,0,23,0,34.6,0
		c4.5,0,4.9-0.4,4.9-4.9c0-20.1,0-40.1,0-60.2c0-0.6,0-1.1-0.1-1.7c-0.4-2.4-1.6-3.4-4.1-3.5c-0.5,0-1,0-1.4,0
		c-10.1,0-20.2-0.1-30.2-0.1c-2,0-4-0.1-6,0c-1.9,0.1-2.6,0.8-2.7,2.6c-0.1,0.6,0,1.3,0,1.9C849.4,303.6,849.4,313.7,849.4,323.9z
		 M978.6,536.5c-0.6,0.5-1.1,0.8-1.5,1.2c-7.6,7.6-15.2,15.1-22.8,22.7c-0.8,0.8-1.7,1.7-2.5,2.6c-1.1,1.3-1.1,2.3-0.1,3.6
		c0.3,0.4,0.8,0.8,1.1,1.2c13.9,13.9,27.8,27.9,41.6,41.8c0.5,0.5,0.9,0.9,1.4,1.3c1.2,0.9,2.3,0.9,3.5-0.1c0.4-0.3,0.8-0.8,1.2-1.2
		c7.3-7.3,14.5-14.6,21.8-22c3.3-3.3,3.3-3.5,0-6.8c-13.4-13.5-26.8-27-40.2-40.6C981.1,539.1,979.9,537.8,978.6,536.5z M760,324.2
		c0-10.2,0-20.5,0-30.7c0-0.7,0-1.4,0-2.2c-0.2-1.8-0.8-2.4-2.6-2.6c-0.5,0-1,0-1.4,0c-11.3,0-22.5,0-33.8,0c-0.6,0-1.3,0-1.9,0.1
		c-1.8,0.2-2.3,0.6-2.5,2.3c-0.2,1.1-0.2,2.2-0.2,3.3c0,19.6,0,39.2-0.1,58.8c0,1,0,2.1,0.1,3.1c0.2,1.8,0.9,2.5,2.7,2.8
		c1.3,0.2,2.5,0.3,3.8,0.3c9.4,0,18.7,0,28.1-0.1c1.7,0,3.4,0.1,5,0c1.8-0.1,2.6-0.8,2.8-2.6c0.1-0.7,0-1.4,0-2.2
		C760,344.6,760,334.4,760,324.2z M848.4,328.6c-0.2-14.2-0.3-24.4-0.4-34.5c-0.1-4.6-0.7-5.2-5.3-5.2c-10.2,0-20.3,0-30.5,0
		c-1.4,0-2.9-0.1-4.3,0c-2.1,0.1-2.7,0.7-2.9,2.7c-0.1,0.6,0,1.3,0,1.9c0,5.1,0,10.2,0,15.3c0,15.1,0,30.2,0,45.3
		c0,0.9,0,1.8,0.1,2.6c0.2,1.6,0.8,2.2,2.4,2.5c0.6,0.1,1.3,0.1,1.9,0.1c11.6,0,23.2,0,34.8,0c3.1,0,3.7-0.6,3.8-3.6
		C848.1,345.4,848.3,335,848.4,328.6z M802.9,324.6c0-10.2,0-20.3,0-30.5c0-4.7-0.8-5.4-5.4-5.4c-10.6,0-21.3-0.1-31.9-0.2
		c-0.5,0-1,0-1.4,0.1c-2,0.3-2.8,1.1-2.9,3.2c0,0.5,0,1,0,1.4c0,19.9,0,39.8,0,59.8c0,1.4,0.1,2.7,0.3,4.1c0.1,1.2,0.8,1.9,2,2.1
		c0.9,0.1,1.7,0.2,2.6,0.2c4.3,0,8.6,0,13,0c6.8,0,13.6,0,20.4,0c3,0,3.4-0.4,3.4-3.2c0-0.5,0-1,0-1.4
		C802.9,344.6,802.9,334.6,802.9,324.6z M605.5,400c-0.1,1.5-0.4,2.9-0.4,4.2c-0.1,9.3-0.1,18.7-0.2,28c0,1.8,0,3.7,0.1,5.5
		c0.1,1.9,1,2.9,2.9,3.3c0.6,0.1,1.3,0.2,1.9,0.2c2.9,0.1,5.8,0.1,8.6,0.1c10.1,0,20.1-0.1,30.2-0.1c7.7,0,15.3,0,23,0
		c3.2,0,3.7-0.5,3.8-3.8c0-0.2,0-0.5,0-0.7c0-10.9-0.1-21.9-0.1-32.8c0-3.5-0.7-4.2-4.2-4.3c-0.2,0-0.5,0-0.7,0c-19.7,0-39.3,0-59,0
		C609.4,399.6,607.5,399.8,605.5,400z M894.2,634.5c0.1-1.7,0.2-3.1,0.2-4.5c0-19.6,0-39.2,0-58.8c0-0.4,0-0.8,0-1.2
		c-0.1-2.3-0.7-3-3-3.1c-0.4,0-0.8,0-1.2,0c-11.7,0-23.4,0-35,0c-0.6,0-1.1,0-1.7,0c-1.3,0-1.9,0.7-2.1,1.9
		c-0.1,0.6-0.1,1.1-0.1,1.7c0,19.7,0,39.3,0,59c0,4.6,0.8,5.3,5.3,5.4c0.6,0,1.1,0,1.7,0c9.7,0,19.4,0,29,0
		C889.5,634.9,891.7,634.7,894.2,634.5z M605.5,442.5c-0.1,1.7-0.4,3-0.4,4.4c-0.1,10.2-0.2,20.5-0.2,30.7c0,4.8,0.5,5.3,5.4,5.3
		c9.8,0,19.7,0,29.5,0c10.7,0,21.4,0,32.1,0c2.7,0,3.3-0.6,3.3-3.2c0-1.7-0.1-3.4-0.1-5c0-9.1,0.1-18.2,0.1-27.3
		c0-0.9,0-1.8-0.1-2.6c-0.2-1.8-1-2.5-2.9-2.6c-0.5,0-1,0-1.4,0c-20.2,0-40.5,0-60.7,0.1C608.7,442.1,607.2,442.3,605.5,442.5z
		 M1015.4,399.8c-10.1,0-20.2,0-30.2,0c-0.7,0-1.4,0-2.2,0c-1.2,0.1-1.9,0.9-2.1,2c-0.1,0.6-0.1,1.3-0.1,1.9c0,10.6,0,21.3,0.1,31.9
		c0,0.9,0.2,1.9,0.3,2.8c0.2,1.4,1.1,2.3,2.5,2.5c1.5,0.2,3,0.4,4.5,0.4c19.2,0,38.4,0,57.6,0c0.6,0,1.3,0,1.9,0
		c1.9-0.2,2.6-0.7,2.9-2.6c0.1-0.9,0.2-1.7,0.2-2.6c0-9.8,0-19.7,0-29.5c0-1.4-0.1-2.7-0.3-4.1c-0.2-1.9-1.1-2.6-3-2.8
		c-0.7-0.1-1.4,0-2.2,0C1035.4,399.8,1025.4,399.8,1015.4,399.8z M761.4,600.2c0,9.7,0,19.5,0,29.2c0,4.8,0.7,5.5,5.6,5.5
		c11-0.1,22-0.3,33.1-0.4c3.9,0,4.3-0.3,4.3-4.2c0-16.4,0-32.8,0-49.1c0-3.7,0.1-7.4,0-11c0-2.4-0.6-2.9-3-3.1c-0.4,0-0.8,0-1.2,0
		c-11.6,0-23.2,0-34.8,0c-3.8,0-4,0.2-4,4.1C761.4,580.9,761.4,590.6,761.4,600.2z M1050,442.2c-0.8-0.1-1.4-0.1-1.9-0.1
		c-20.7,0-41.4,0-62.1,0c-1.4,0-2.8,0.3-4.4,0.5c-0.2,1.9-0.5,3.6-0.5,5.4c0,7.3,0.1,14.5,0.2,21.8c0,3.2,0,6.4,0,9.6
		c0,2.5,1,3.4,3.5,3.5c0.5,0,1,0,1.4,0c6.8,0,13.6,0,20.4-0.1c11.7-0.1,23.5-0.2,35.2-0.3c2.1,0,4.2,0,6.2-0.1
		c2-0.1,2.4-0.5,2.6-2.4c0.1-1,0.2-2.1,0.2-3.1c0-8.8,0.1-17.6,0-26.4C1050.8,447.8,1050.3,445,1050,442.2z M630,583.7
		c0.5,0.5,0.8,0.9,1.1,1.2c7.6,7.6,15.1,15.2,22.7,22.8c1,1,2,2.1,3.1,3c1.1,1,1.8,1,3,0.1c0.4-0.3,0.8-0.8,1.2-1.1
		c7.3-7.2,14.6-14.4,21.9-21.6c6.7-6.6,13.3-13.2,19.9-19.8c2.2-2.2,2.2-3.7,0.2-5.7c-7.6-7.6-15.3-15.3-22.9-22.9
		c-0.9-0.9-2-1.8-3.1-2.9C661.4,552.5,645.7,568,630,583.7z M680.8,288.8c-0.1,1.1-0.3,2-0.3,3c0,21,0,42.1,0,63.1
		c0,0.6,0,1.3,0.1,1.9c0.3,1.6,1.1,2.4,2.7,2.6c0.6,0.1,1.1,0,1.7,0c9,0,18.1,0,27.1,0c0.6,0,1.3,0,1.9-0.1c1.3-0.1,2-0.9,2.2-2.2
		c0.1-0.6,0.1-1.1,0.1-1.7c0-20.9,0.1-41.8,0.1-62.6c0-0.7,0-1.4-0.1-2.2c-0.1-1.1-0.7-1.7-1.8-1.9c-0.6-0.1-1.1-0.1-1.7-0.1
		c-10.1,0-20.2,0-30.2,0C682.1,288.7,681.7,288.7,680.8,288.8z M605.4,363.4c-0.2,2.4-0.4,4.5-0.4,6.7c-0.1,7.4,0,14.9,0,22.3
		c0,1,0,1.9,0.1,2.9c0.2,2.2,1.1,3.2,3.3,3.5c1.2,0.2,2.4,0.2,3.6,0.2c19,0,38,0,57.1,0c1.1,0,2.2,0.1,3.4,0
		c1.7-0.1,2.7-1.2,2.8-2.9c0.1-1.3,0.1-2.6,0.1-3.8c0.1-8.5,0.2-17.1,0.2-25.6c0-2.5-0.8-3.3-3.3-3.3c-1.7,0-3.4,0.1-5,0.1
		c-19.5,0-39,0-58.5,0C607.7,363.4,606.8,363.4,605.4,363.4z M981.5,363.4c-0.2,1.9-0.5,3.5-0.5,5.1c0,8.6-0.1,17.1,0,25.7
		c0,3.5,1.2,4.7,4.8,4.7c20.5,0,40.9,0,61.4,0c2.8,0,3.5-0.8,3.6-3.6c0-0.6,0-1.1,0-1.7c0-8.1,0-16.2,0-24.2c0-5.3-0.7-6-5.9-6
		c-20.3,0-40.6,0-60.9,0C983.2,363.4,982.4,363.4,981.5,363.4z M937.8,605.2C937.8,605.2,937.8,605.2,937.8,605.2
		c-0.1-8.8-0.1-17.6-0.1-26.4c0-3-0.6-3.6-3.7-3.7c-0.5,0-1,0-1.4,0c-10.5,0-21,0-31.4,0c-4.5,0-4.5,0.1-4.5,4.6
		c0,16.6,0,33.1,0,49.7c0,1,0,2.1,0.1,3.1c0.2,1.7,0.8,2.3,2.4,2.5c1.1,0.1,2.2,0.1,3.4,0.1c10.5,0,21,0,31.4,0c0.4,0,0.8,0,1.2,0
		c1.8-0.2,2.4-0.8,2.6-2.5c0.1-0.7,0-1.4,0-2.2C937.8,622,937.8,613.6,937.8,605.2z M758.3,605.5c0-5.8,0-11.5,0-17.3
		c0-3.3,0-6.6-0.1-9.8c-0.1-2.3-0.9-3.1-3.2-3.3c-0.5,0-1,0-1.4,0c-10.9,0-21.8,0-32.6,0c-0.6,0-1.3,0-1.9,0c-1.2,0.1-1.9,0.8-2,2
		c-0.1,1.3-0.1,2.6-0.1,3.8c0,15.5,0,31,0,46.6c0,1.4,0,2.7,0.1,4.1c0.2,2.3,1,3.1,3.3,3.4c0.5,0.1,1,0,1.4,0
		c11,0,21.9,0.1,32.9,0.1c0.5,0,1,0,1.4-0.1c1.4-0.2,2.1-0.9,2.3-2.4c0.1-0.7,0.1-1.4,0.1-2.2C758.3,622.2,758.3,613.8,758.3,605.5z
		 M807.5,604.1C807.5,604.1,807.5,604.1,807.5,604.1c0,7.8,0,15.7,0,23.5c0,1.2,0,2.4,0.1,3.6c0.2,2.1,1.1,3,3.1,3.4
		c1.1,0.2,2.2,0.2,3.3,0.2c9,0,18.1,0,27.1,0c1.7,0,3.4,0.1,5,0c2-0.1,2.9-1,3.1-3c0.1-0.5,0-1,0-1.4c0-16.8,0-33.6,0-50.4
		c0-0.8,0-1.6-0.2-2.4c-0.4-1.8-1.1-2.5-2.9-2.6c-0.7-0.1-1.4,0-2.2,0c-10.6,0-21.1,0-31.7,0c-0.8,0-1.6,0-2.4,0
		c-1.6,0.1-2.2,0.8-2.4,2.4c-0.1,0.5,0,1,0,1.4C807.5,587.3,807.5,595.7,807.5,604.1z M977.6,530.9c0.7,0.8,1.5,1.8,2.3,2.6
		c13.4,13.6,26.7,27.1,40.1,40.6c1.7,1.8,3.5,3.6,5.2,5.3c2,2,3.3,2,5.3,0.1c5-4.7,10-9.5,14.9-14.3c0.6-0.6,1.2-1.3,1.7-2
		c0.7-1.1,0.6-1.9-0.5-2.7c-0.8-0.5-1.7-0.9-2.5-1.3c-17.7-8.1-35.5-16.1-53.3-24.1c-3.6-1.6-7.1-3.2-10.7-4.8
		C979.2,529.9,978.3,529.5,977.6,530.9z M944.9,563.5c-1.3,1.3-0.4,2.2,0,3.1c5.9,14.4,11.8,28.8,17.7,43.2
		c2.9,7.1,5.8,14.2,8.7,21.3c1.1,2.7,2.4,2.9,4.5,1.1c5.6-4.9,11.2-9.8,16.7-14.7c0.5-0.4,1-0.8,1.4-1.3c0.9-1.1,0.9-1.8,0.1-3
		c-0.3-0.4-0.6-0.7-1-1.1c-15.2-15.4-30.3-30.7-45.5-46C946.8,565.2,945.9,564.4,944.9,563.5z M605.6,526.4
		c-0.2,1.5-0.5,2.9-0.5,4.4c0,7.3,0.1,14.7,0.2,22c0,1.4,0,2.9,0.1,4.3c0.2,1.9,1.2,2.5,2.9,2c0.8-0.3,1.6-0.7,2.4-1
		c11.1-5.2,22.1-10.4,33.2-15.5c9.2-4.2,18.5-8.3,27.8-12.4c1.7-0.8,3-1.8,3.8-3.8C652.2,526.4,629,526.4,605.6,526.4z M979.6,526.9
		c0.9,0.8,1.3,1.3,1.8,1.5c1,0.6,2,1,3,1.5c20.8,9.6,41.7,19.1,62.5,28.7c2.9,1.3,3.5,1,3.5-2.2c0-8.7,0-17.4,0-26.2
		c0-0.5,0-1,0-1.4c-0.2-1.7-1.1-2.6-2.8-2.7c-0.6-0.1-1.1,0-1.7,0c-20.3,0-40.6,0-60.9,0c-1.1,0-2.2,0-3.4,0.1
		C981.1,526.2,980.6,526.5,979.6,526.9z M925.9,481.6c17.2,0,34.1,0,51.1,0c0-13.3,0-26.4,0-39.7c-1.2-0.1-2.3-0.2-3.4-0.2
		c-13.1,0-26.2,0-39.4,0c-1.9,0-3.8-0.1-5.8,0c-1.9,0.1-2.4,0.6-2.5,2.4c0,0.5,0,1,0,1.4c0,10.8-0.1,21.6-0.1,32.4
		C925.9,479.1,925.9,480.2,925.9,481.6z M607.7,561.5c0.9,1.1,1.5,1.9,2.2,2.6c2.8,2.8,5.7,5.6,8.5,8.4c2.3,2.3,4.7,4.6,7,6.9
		c2,1.9,3.3,1.9,5.4,0c0.2-0.2,0.4-0.5,0.7-0.7c6-6.2,12.1-12.3,18.1-18.5c8-8.1,16-16.1,23.9-24.2c1.9-1.9,3.2-4.1,4.8-6.8
		C654.6,540.1,631.3,550.7,607.7,561.5z M679.1,481.9c2.2,0.5,48.5,0.5,50.2,0c0-0.6,0-1.2,0-1.9c0-10.9,0-21.8,0-32.6
		c0-5-0.7-5.7-5.7-5.7c-9.7-0.1-19.4-0.2-29-0.3c-4.2,0-8.5-0.1-12.7-0.1c-2.2,0-2.8,0.7-2.9,2.9c0,0.2,0,0.5,0,0.7
		c0,11.7,0,23.4,0,35C679,480.5,679.1,481.2,679.1,481.9z M711.7,563.6c-0.2-0.1-0.4-0.2-0.6-0.2c-2.7,2.6-5.4,5.2-8.1,7.8
		c-13.5,13.4-27,26.8-40.5,40.2c-2.1,2.1-2,3.1,0.2,5.1c2.5,2.2,5,4.5,7.6,6.6c4.2,3.6,8.4,7.2,12.8,11c1-2.1,2-3.8,2.8-5.6
		c8-19.3,15.9-38.7,23.8-58.1C710.5,568.3,711,565.9,711.7,563.6z M848.8,537.8c0-7.1-0.1-14.2,0-21.4c0-2.5-0.9-3.9-3.8-3.9
		c-11.1,0.1-22.2,0-33.3-0.1c-0.6,0-1.1,0-1.7,0.1c-1.7,0.2-2.2,0.7-2.4,2.4c-0.1,1-0.1,2.1-0.1,3.1c-0.1,10-0.2,20-0.3,30
		c0,3.5-0.1,7-0.1,10.6c0,2.3,0.8,3.1,3.2,3.3c0.4,0,0.8,0,1.2,0c11.7,0.1,23.3,0.2,35,0.4c1.7,0,2.3-0.5,2.4-2.2c0-0.6,0-1.1,0-1.7
		C848.8,551.6,848.8,544.7,848.8,537.8z M783.3,512.6c-6,0-12,0-18,0c-2.3,0-3.2,0.9-3.4,3.2c0,0.5,0,1,0,1.4c0,8.7-0.1,17.4,0,26.1
		c0,5.2,0.3,10.4,0.5,15.6c0.1,2.2,0.9,2.9,3.1,3.1c0.4,0,0.8,0,1.2,0c10.8,0,21.6,0,32.4,0c0.7,0,1.4,0,2.2-0.1
		c2.3-0.3,2.9-0.9,3-3.2c0.1-1.4,0.1-2.7,0.1-4.1c-0.1-12.8-0.1-25.6-0.2-38.3c0-3-0.7-3.7-3.6-3.7
		C794.8,512.6,789.1,512.6,783.3,512.6z M605,484.4c0,1.5,0,2.5,0,3.5c0,4.5-0.1,9,0,13.4c0,2.1,0.8,2.9,2.9,3.1c0.3,0,0.6,0,1,0
		c21,0,42.1,0,63.1,0c2.9,0,3.4-0.5,3.4-3.3c0-4,0-8,0-12c0-4.1-0.5-4.5-4.5-4.6c-21-0.1-41.9-0.1-62.9-0.2
		C607.1,484.4,606.2,484.4,605,484.4z M851.6,537.2C851.6,537.2,851.6,537.2,851.6,537.2c-0.1,2.7-0.1,5.4-0.1,8.2
		c0,4.6-0.1,9.1-0.1,13.7c0,2.6,0.8,3.2,3.3,3.3c0.6,0,1.1,0,1.7,0c9.9,0,19.8,0,29.7,0c1.1,0,2.2,0.1,3.4,0c2.3-0.1,3.1-1,3.4-3.2
		c0.1-0.6,0-1.1,0-1.7c0-3.9-0.1-7.8-0.1-11.7c0-9.7,0.1-19.3,0.1-29c0-3.3-1.2-4.1-4.2-4.1c-11,0.1-22.1,0-33.1,0
		c-0.6,0-1.3,0-1.9,0c-1.2,0.1-1.9,0.8-2,2c-0.1,0.7-0.1,1.4-0.1,2.2C851.6,523.6,851.6,530.4,851.6,537.2z M1050.7,504.4
		c0.1-0.7,0.2-1.1,0.2-1.4c0-4.6,0-9.3,0-13.9c0-0.2,0-0.3,0-0.5c-0.2-2.9-1.3-4-4.1-4.2c-0.9-0.1-1.8,0-2.6,0
		c-15.1,0-30.2,0-45.3-0.1c-4.8,0-9.6-0.1-14.4-0.1c-2.5,0-3.1,0.7-3.1,3.2c-0.1,4.2-0.2,8.5-0.3,12.7c0,4.2,0.2,4.3,4.3,4.3
		c20.9,0,41.9,0,62.8,0C1048.9,504.4,1049.7,504.4,1050.7,504.4z M674.8,524.9c0.2-0.4,0.3-0.5,0.3-0.7c0-5.3,0.1-10.5,0-15.8
		c0-1.7-0.9-2.5-2.7-2.8c-0.7-0.1-1.4-0.1-2.2-0.1c-6,0-12,0.1-18,0.1c-14.8,0-29.6,0-44.4,0c-0.9,0-1.9,0-3,0
		c0,5.4-0.1,10.6,0,15.7c0,2.1,1.1,3.1,3.3,3.4c1.3,0.2,2.7,0.2,4.1,0.2c20,0,40,0,60,0C673.2,524.9,674.1,524.9,674.8,524.9z
		 M1015.8,505.2c-9.8,0-19.7,0-29.5,0c-0.9,0-1.8,0-2.6,0.1c-1.9,0.3-2.7,1.1-2.8,3c-0.1,1,0,1.9,0,2.9c0,3.4,0,6.7,0,10.1
		c0.1,2.6,1.1,3.8,3.7,4.2c0.9,0.1,1.9,0.1,2.9,0.1c19.8,0,39.6,0.1,59.4,0.1c2.4,0,3.7-1.1,3.8-3.6c0.1-3.7,0.2-7.5,0.2-11.3
		c0-4.7-0.9-5.6-5.6-5.6C1035.4,505.2,1025.6,505.2,1015.8,505.2z M942.3,568c-1.4,0-1.9,0.3-1.9,1.4c0,0.5,0,1,0,1.4
		c0,19.8,0,39.6,0,59.4c0,4.1,0.5,4.7,4.7,4.7c7.6,0,15.2,0,22.8,0c0.8,0,1.5-0.1,2.7-0.1C961.1,612.3,951.7,590.2,942.3,568z
		 M715,568.4c-1.2-0.5-1.9-0.4-2.3,0.6c-0.1,0.4-0.3,0.7-0.5,1.1c-7.1,16.6-14.2,33.2-21.4,49.7c-1.9,4.5-3.8,8.9-5.9,13.7
		c2.2,0.4,4.2,1.1,6.3,1.1c6.9,0.2,13.7,0.2,20.6,0.1c2.7,0,3.5-0.9,3.5-3.7c0-19.3,0-38.7-0.1-58C715.3,571.6,715.1,570,715,568.4z
		 M977,524.8c0.2-1.7,0.4-3,0.4-4.4c0-11.2,0-22.4,0-33.6c0-3.2-0.5-3.7-3.8-3.7c-0.1,0-0.2,0-0.2,0c-14.5,0-28.9,0-43.4,0
		c-0.6,0-1.1,0-1.7,0c-1.6,0.2-2.1,0.7-2.2,2.3c-0.1,0.6,0,1.3,0,1.9c0,4.2,0,8.5-0.2,12.7c-0.1,3.7,0.3,4.6,3.8,5.9
		c13.8,5.5,27.6,10.9,41.4,16.4C972.9,523.1,974.8,523.8,977,524.8z M703.9,483.2C703.9,483.1,703.9,483.1,703.9,483.2
		c-6.7-0.1-13.4-0.1-20.1-0.1c-0.8,0-1.6,0-2.4,0.1c-1.6,0.2-2.2,0.9-2.4,2.5c-0.1,0.5-0.1,1-0.1,1.4c0,11.3,0,22.5,0,33.8
		c0,3.9,0.6,4.2,4.2,2.7c8.6-3.5,17.3-7.1,25.9-10.6c5.6-2.3,11.2-4.6,16.8-6.9c2-0.8,3.2-2,3.1-4.3c-0.1-5.2-0.1-10.4-0.2-15.6
		c0-2.1-0.8-2.8-2.9-3c-0.6-0.1-1.1-0.1-1.7-0.1C717.5,483.2,710.7,483.2,703.9,483.2z M951.5,439.9c7,0,14.1,0,21.1,0
		c0.9,0,1.8-0.1,2.6-0.1c1.2-0.1,1.9-0.7,1.9-2c0-1.3,0.1-2.6,0.1-3.8c0.1-7.9,0.1-15.8,0.1-23.7c0-2.6-0.1-5.3-0.4-7.9
		c-0.2-2.3-1.5-3.2-3.8-2.9c-1.4,0.2-2.8,0.6-4.2,1c-0.5,0.1-1.1,0.5-1.3,0.9c-0.8,1.5-2.2,2-3.6,2.6c-11.5,4.7-23.1,9.3-34.6,14
		c-3.2,1.3-3.8,2.1-3.7,5.6c0,4.2,0.1,8.3,0.2,12.5c0.1,3.8,0.3,4,4.2,4C937.3,439.9,944.4,439.9,951.5,439.9z M704.3,439.9
		c5,0,9.9,0,14.9,0c2.6,0,5.1,0,7.7,0c2-0.1,2.6-0.6,2.6-2.6c0-4.7,0-9.4,0-14.2c0-2.2-1-3.8-3.1-4.7c-0.6-0.3-1.2-0.5-1.8-0.8
		c-10.8-4.5-21.7-9-32.5-13.5c-1.3-0.6-2.5-1.2-3.4-2.5c-1.9-2.6-4.8-3.4-7.8-2.3c-1,0.4-1.5,1.1-1.7,2.1c-0.1,0.7-0.1,1.4-0.1,2.2
		c0,9.5,0,19,0,28.5c0,1.5,0,3,0,4.6c0,2.5,0.6,3.1,3.1,3.2c0.6,0,1.3,0,1.9,0C690.8,439.9,697.5,439.9,704.3,439.9z M721.2,561.9
		c1.2,0,2.1,0,2.9,0c11,0,21.9,0,32.9,0c0.4,0,0.8,0,1.2,0c2.4-0.1,2.9-0.6,3-3c0-0.3,0-0.6,0-1c-0.1-8.5-0.2-17-0.2-25.4
		c0-5,0-10.1,0-15.1c0-4.1-0.7-4.8-4.7-4.9c-3.9-0.1-7.8,0-11.8-0.1c-3.8-0.1-4.6,0.4-6.1,3.8c-2.5,5.7-5,11.4-7.6,17.1
		c-3,6.6-6.1,13.2-9.2,19.8c-0.2,0.4-0.4,0.9-0.4,1.4C721.1,556.8,721.2,559.2,721.2,561.9z M895.1,561.9c0.4,0.1,0.7,0.2,1,0.2
		c11.4,0,22.9,0,34.3,0c1.6,0,2.6-0.8,3.3-2c0.9-1.6,0.9-3.3,0.1-5.1c-5.6-13.1-11.2-26.1-16.9-39.2c-1.1-2.7-2.3-3.4-5.2-3.3
		c-3.4,0-6.9,0.1-10.3,0.1c-1.2,0-2.4-0.1-3.6,0c-1.9,0.1-2.7,0.9-2.9,2.8c0,0.5,0,1,0,1.4c0,14.2,0,28.5,0,42.7
		C895,560.3,895.1,561.1,895.1,561.9z M893.2,396c0-1.7,0-3.1,0-4.6c0-7.8,0-15.7-0.1-23.5c0-3.3-0.9-4.1-4.1-4.1c-12,0-24,0-36,0
		c-0.6,0-1.1,0-1.7,0c-1.4,0.2-2.2,0.9-2.4,2.3c-0.1,0.8-0.1,1.6-0.1,2.4c0,7.3,0,14.5,0,21.8c0,4.6,1,5.6,5.6,5.6
		c12.1,0,24.1,0,36.2,0C891.4,396,892.1,396,893.2,396z M827,396c6,0,12,0,18,0c2.8,0,3.4-0.7,3.4-3.4c0-8.1,0-16.1-0.1-24.2
		c0-3.3-1.1-4.4-4.5-4.4c-11.7,0-23.3,0-35,0c-2.9,0-3.7,0.8-3.7,3.7c0,4.6,0,9.3,0,13.9c0,3.6,0,7.2,0,10.8c0,2.6,0.9,3.4,3.4,3.6
		c0.6,0,1.3,0,1.9,0C816,396,821.5,396,827,396z M802.6,364c-2,0-3.8,0-5.5,0c-9.8,0-19.7-0.1-29.5,0c-1.6,0-3.3,0.5-4.9,1
		c-1.5,0.5-2.2,1.7-2.2,3.5c0.1,7.7,0,15.4,0,23c0,3.5,1,4.5,4.4,4.5c11.4,0,22.9,0,34.3,0c2.8,0,3.6-0.8,3.6-3.5
		c0-8.7-0.1-17.4-0.1-26.1C802.7,365.6,802.7,364.9,802.6,364z M946,409.2c0.9-0.3,1.8-0.4,2.6-0.8c5.6-2.5,11.2-5.1,16.7-7.7
		c3.4-1.6,6.3-4,9-6.7c1.6-1.6,1.6-2.4,0-4.1c-0.6-0.6-1.3-1.2-1.9-1.8c-2.7-2.4-5.4-4.8-8-7.2c-6-5.4-12-10.8-18-16.2
		c-2-1.7-2.9-1.7-4.7,0.2c-1.6,1.7-3.1,3.5-4.7,5.1c-4.5,4.4-7.8,9.7-9.8,15.7c-0.2,0.5-0.4,1.1-0.6,1.6c-0.9,2-0.5,3.6,1.1,5.1
		c4.9,4.6,9.6,9.4,14.5,14c0.7,0.7,1.6,1.3,2.4,1.9C944.9,408.8,945.5,408.9,946,409.2z M718,557.2c0.5-1,1-1.6,1.3-2.4
		c2.4-5.2,4.8-10.4,7.2-15.6c2.2-4.8,2.1-5.7-1.7-9.4c-4.4-4.3-9-8.4-13.4-12.6c-2.2-2.1-4.6-2.1-7.3-1c-5.8,2.5-11.6,4.9-17.4,7.3
		c-4,1.6-4.2,2.3-0.9,5.2c10.3,9.1,20.5,18.3,30.8,27.4C716.9,556.4,717.3,556.7,718,557.2z M973,526.6c-1.5-0.9-2.7-1.7-4.1-2.3
		c-6.3-2.9-12.7-5.7-19-8.5c-2.7-1.2-3.4-1-5.5,1c-5.1,4.7-10.2,9.5-15.3,14.2c-2.3,2.1-2.5,2.7-1.2,5.6c2.5,5.9,5.1,11.7,7.7,17.6
		c0.2,0.4,0.4,0.9,0.6,1.3c0.9,1.4,2,1.7,3.4,0.7c1.2-0.9,2.3-2,3.5-3c6.4-5.8,12.8-11.6,19.3-17.3
		C965.7,532.9,969.2,529.9,973,526.6z M894.4,364.6c-0.1,1-0.3,1.7-0.3,2.4c0,8.1,0,16.1,0,24.2c0,3.1,1.4,4.5,4.5,4.7
		c0.6,0,1.1,0,1.7,0c5.4,0,10.9,0,16.3,0c3.1,0,3.7-0.4,4.8-3.2c2.4-5.8,4.8-11.7,7.2-17.5c0.6-1.3,1.1-2.7,2.8-3
		c0.3-0.1,0.8-0.4,0.9-0.7c0.8-1.7,1-3.5,0.2-5.3c-0.7-1.6-2.2-1.6-3.7-1.6c-10.5,0-21.1,0-31.6,0
		C896.3,364.6,895.6,364.6,894.4,364.6z M758.1,364.8c-0.8-0.1-1.4-0.2-2-0.2c-10.5,0-20.9,0-31.4,0c-0.5,0-1,0-1.4,0.1
		c-1.4,0.2-1.8,0.9-1.8,2.3c0,1,0.1,1.9,0.1,2.9c0,1.2,0.5,2.3,1.6,2.7c1.1,0.4,1.5,1.2,1.9,2.3c2.3,5.6,4.6,11.2,6.9,16.9
		c1.3,3.2,2.6,4.2,6.2,4.2c4.9,0,9.7,0,14.6,0c4.6,0,5.5-0.8,5.5-5.4c0-7.8,0-15.7,0-23.5C758.2,366.2,758.1,365.6,758.1,364.8z"/>
	<path d="M827.6,440.2c26.5,0,52.9,0,79.4,0c4.4,0,4.8,0.4,4.8,4.8c0,17.8,0,35.7,0.1,53.5c0,4.3-0.4,4.7-4.6,4.7
		c-28.9,0-57.9,0-86.8,0c-23.6,0-47.2,0-70.8-0.1c-1,0-1.9,0-2.9-0.1c-1.9-0.2-2.7-1.1-2.9-2.9c-0.1-1-0.1-1.9-0.1-2.9
		c0-17.6,0-35.2,0-52.8c0-4,0.3-4.2,4.2-4.2C774.5,440.2,801,440.2,827.6,440.2z M827.8,441.1C827.8,441.1,827.8,441.2,827.8,441.1
		c-11,0-22.1,0-33.1,0c-15.8,0-31.5,0-47.3,0c-2.6,0-2.7,0.1-2.8,2.7c0,0.2,0,0.3,0,0.5c0,17.8,0,35.5,0,53.3c0,4.4,0.2,4.5,4.7,4.6
		c23.9,0,47.8,0.1,71.7,0.1c28.5,0,56.9,0,85.4,0c0.6,0,1.1,0,1.7,0c2.3-0.1,2.6-0.4,2.7-2.6c0-0.3,0-0.6,0-1c0-17.9,0-35.8,0-53.7
		c0-3.6-0.1-3.7-3.8-3.7C880.6,441.1,854.2,441.1,827.8,441.1z"/>
	<path d="M938,291.3c0.6-2.4,2.2-2.4,3.9-2.4c7.8,0,15.7,0,23.5,0c1.8,0,3.5-0.1,5.3,0c2.5,0,3,0.5,3.3,3.1c0.2,1.3,0.3,2.5,0.3,3.8
		c0,18.6,0,37.1,0,55.7c0,1.7-0.1,3.4-0.2,5c-0.1,1.7-0.9,2.4-2.6,2.6c-0.6,0.1-1.3,0.1-1.9,0.1c-8.6,0-17.3,0-25.9,0
		c-0.3,0-0.6,0-1,0c-3.6-0.1-4.3-0.9-4.3-4.5c-0.1-20.4-0.2-40.8-0.3-61.1c0-0.3,0-0.6-0.4-0.9c0,0.8,0,1.6,0,2.5
		c0,20.4,0,40.8,0,61.2c0,2.3-0.8,3.2-3.1,3.3c-1.7,0.1-3.4,0-5,0c-9.4,0-18.7,0-28.1,0.1c-0.9,0-1.8,0-2.6-0.1
		c-2.1-0.2-2.8-0.9-2.9-3.1c-0.1-3.9-0.1-7.8-0.1-11.8c0-13.1,0-26.2,0.1-39.3c0-3.9,0-7.8-0.1-11.8c0-0.6,0-1.1,0-1.7
		c0.1-2.2,0.7-2.9,2.9-2.9c1.3,0,2.6,0,3.8,0c10.5,0,20.9,0,31.4,0C935.7,289,937.2,289.1,938,291.3z M936.9,324.2
		c0-9.9,0-19.8,0-29.8c0-0.8,0-1.6,0-2.4c-0.1-1.8-0.4-2-2.2-2.1c-0.3,0-0.6,0-1,0c-11.4,0-22.7,0-34.1-0.1c-0.4,0-0.8,0-1.2,0
		c-1,0-1.5,0.5-1.5,1.5c0,0.6,0,1.1,0,1.7c0,20.6,0,41.3,0,61.9c0,3.3,0.2,3.5,3.5,3.6c0.6,0,1.3,0,1.9,0c10.2,0,20.5,0,30.7,0
		c3.5,0,3.8-0.2,3.8-3.8C936.9,344.6,936.9,334.4,936.9,324.2z M939,323.8C939.1,323.8,939.1,323.8,939,323.8c0.1,10,0.1,20,0.1,30
		c0,3.9,0.5,4.4,4.4,4.4c8.7,0,17.4,0,26.2,0c0.5,0,1,0,1.4,0c1.3,0,1.9-0.7,2-1.9c0.1-1.8,0.2-3.7,0.2-5.5c0-18.1,0-36.2,0-54.2
		c0-1.4-0.1-2.9-0.3-4.3c-0.2-2.1-0.5-2.3-2.6-2.3c-3,0-5.9,0-8.9,0c-6.5,0-13,0-19.4,0c-2.9,0-3.1,0.2-3.1,3.2c0,0.6,0,1.1,0,1.7
		C939,304.4,939,314.1,939,323.8z"/>
	<path d="M876.3,436.4c-1.3,0-2.2,0-3.2,0c-29,0-58,0-87.1,0c-1.6,0-3.2,0.1-4.8-0.2c-2.1-0.3-2.6-1.1-2.5-3.3
		c0-1.8-0.1-3.7-0.1-5.5c0-2.5,0.3-2.8,2.7-2.8c4.2-0.1,8.3-0.1,12.5-0.1c2.7,0,3.2-0.3,3.2-3.2c0-3.8,0-7.5-0.1-11.3
		c-0.1-4.2,0.3-4.6,4.4-4.6c7.8,0,15.7,0,23.5,0c9.9,0,19.8,0,29.7,0c0.6,0,1.1,0,1.7,0c1.8,0.1,2.2,0.4,2.3,2.3
		c0.1,1.9,0.2,3.8,0.3,5.7c0.1,2.7,0,5.4,0.1,8.2c0.1,2.2,0.4,2.7,2.7,2.8c3.1,0.1,6.2,0.1,9.4,0.1c0.5,0,1,0,1.4,0
		c3.4,0,4.4,1.1,4,4.6c-0.1,1.2-0.1,2.4-0.1,3.6C876.3,433.9,876.3,435,876.3,436.4z M779.8,425.6c0,2.8,0,5.1,0,7.4
		c0,1.7,0.2,2.1,1.9,2.4c1.3,0.2,2.7,0.1,4.1,0.1c28.9,0,57.8,0,86.6,0c0.9,0,1.9,0,2.8,0c0.1-2.8,0.3-5.2,0.3-7.7
		c0-1.4-0.6-2-2-2.1c-0.7-0.1-1.4,0-2.2,0c-3.2,0-6.4,0.1-9.6-0.1c-3-0.1-3.7-0.9-3.8-4c-0.1-4.3-0.2-8.6-0.3-13
		c0-0.6-0.2-1.2-0.3-2.1c-0.9,0-1.7,0-2.5,0c-11.2,0-22.4,0-33.6,0c-6.9,0-13.8,0-20.6,0c-2.5,0-2.7,0.3-2.7,2.8c0,3.8,0,7.5,0,11.3
		c0,4.6-0.5,5-5.1,4.9C788.6,425.4,784.3,425.5,779.8,425.6z"/>
	<path d="M849.4,323.9c0-10.2,0-20.3,0-30.5c0-0.6,0-1.3,0-1.9c0.1-1.9,0.8-2.6,2.7-2.6c2-0.1,4,0,6,0c10.1,0,20.2,0.1,30.2,0.1
		c0.5,0,1,0,1.4,0c2.5,0.1,3.6,1.1,4.1,3.5c0.1,0.5,0.1,1.1,0.1,1.7c0,20.1,0,40.1,0,60.2c0,4.5-0.4,4.9-4.9,4.9
		c-11.5,0-23,0-34.6,0c-4.5,0-5-0.5-5-4.9C849.4,344.2,849.4,334,849.4,323.9C849.4,323.9,849.4,323.9,849.4,323.9z M850.3,323.7
		C850.3,323.7,850.4,323.7,850.3,323.7c0,10.4,0,20.8,0.1,31.2c0,3,0.4,3.3,3.3,3.4c0.2,0,0.3,0,0.5,0c11.7,0,23.4,0,35,0
		c3.7,0,3.7-0.1,3.7-3.8c0-19,0-37.9,0-56.9c0-1.3,0.1-2.6,0.1-3.8c-0.1-3-1-3.9-3.9-3.9c-11.8,0-23.7,0-35.5-0.1
		c-0.6,0-1.1,0-1.7,0c-1,0-1.5,0.6-1.5,1.5c-0.1,0.7,0,1.4,0,2.2C850.3,303.6,850.3,313.7,850.3,323.7z"/>
	<path d="M978.6,536.5c1.3,1.3,2.4,2.6,3.7,3.9c13.4,13.5,26.8,27.1,40.2,40.6c3.3,3.3,3.3,3.5,0,6.8c-7.3,7.3-14.5,14.6-21.8,22
		c-0.4,0.4-0.8,0.8-1.2,1.2c-1.2,0.9-2.3,1-3.5,0.1c-0.5-0.4-0.9-0.9-1.4-1.3c-13.9-13.9-27.8-27.9-41.6-41.8
		c-0.4-0.4-0.8-0.8-1.1-1.2c-1.1-1.4-1.1-2.3,0.1-3.6c0.8-0.9,1.7-1.7,2.5-2.6c7.6-7.6,15.2-15.1,22.8-22.7
		C977.5,537.3,978,537,978.6,536.5z M978.4,537.9c-0.4,0.4-0.8,0.7-1.1,1c-7.9,7.8-15.7,15.7-23.6,23.5c-2.3,2.3-2.3,2.4,0.1,4.7
		c2.5,2.5,5,5,7.4,7.5c11.4,11.5,22.9,23,34.3,34.5c1.9,2,2.3,1.9,4.3-0.1c7.4-7.4,14.8-14.8,22.2-22.2c0.8-0.8,1.4-1.6,2.3-2.7
		C1008.9,568.7,993.7,553.4,978.4,537.9z"/>
	<path d="M760,324.2c0,10.2,0,20.3,0,30.5c0,0.7,0,1.4,0,2.2c-0.2,1.8-1,2.6-2.8,2.6c-1.7,0.1-3.4,0-5,0c-9.4,0-18.7,0.1-28.1,0.1
		c-1.3,0-2.6-0.1-3.8-0.3c-1.8-0.3-2.5-1-2.7-2.8c-0.1-1-0.1-2.1-0.1-3.1c0-19.6,0-39.2,0.1-58.8c0-1.1,0.1-2.2,0.2-3.3
		c0.3-1.7,0.8-2.1,2.5-2.3c0.6-0.1,1.3-0.1,1.9-0.1c11.3,0,22.5,0,33.8,0c0.5,0,1,0,1.4,0c1.7,0.2,2.4,0.8,2.6,2.6
		c0.1,0.7,0,1.4,0,2.2C760,303.8,760,314,760,324.2z M759,324.1c0-10.3,0-20.6,0-30.9c0-3.3-0.1-3.3-3.4-3.3c-11.1,0-22.2,0-33.3,0
		c-3.5,0-3.8,0.2-3.8,3.8c0,20.1-0.1,40.3-0.1,60.4c0,0.8,0,1.6,0.1,2.4c0.1,1.1,0.7,1.8,1.8,1.9c1.2,0.1,2.4,0.3,3.6,0.3
		c8.2,0,16.5,0,24.7,0c2.7,0,5.4,0.1,8.2,0c1.7,0,2.1-0.4,2.3-2.1c0.1-0.6,0-1.3,0-1.9C759,344.4,759,334.2,759,324.1z"/>
	<path d="M848.4,328.6c-0.1,6.4-0.3,16.8-0.4,27.3c0,3-0.7,3.6-3.8,3.6c-11.6,0-23.2,0-34.8,0c-0.6,0-1.3,0-1.9-0.1
		c-1.6-0.3-2.2-0.9-2.4-2.5c-0.1-0.9-0.1-1.8-0.1-2.6c0-15.1,0-30.2,0-45.3c0-5.1,0-10.2,0-15.3c0-0.6,0-1.3,0-1.9
		c0.2-2.1,0.8-2.7,2.9-2.7c1.4-0.1,2.9,0,4.3,0c10.2,0,20.3,0,30.5,0c4.6,0,5.3,0.6,5.3,5.2C848.1,304.2,848.2,314.4,848.4,328.6z
		 M847.5,327.4c-0.2-11.4-0.3-19.9-0.5-28.4c0-2.2,0-4.3-0.1-6.5c-0.1-2-0.7-2.5-2.6-2.7c-0.5,0-1,0-1.4,0c-7.4,0-14.9,0-22.3,0
		c-4.1,0-8.2,0-12.2,0c-2,0-2.3,0.3-2.4,2.4c0,0.6,0,1.3,0,1.9c0,7.9,0,15.8,0,23.7c0,12.4,0,24.8,0,37.2c0,3,0.4,3.5,3.2,3.5
		c11.8,0,23.5,0,35.3,0c2.2,0,2.5-0.3,2.6-2.5C847.2,345.5,847.3,335,847.5,327.4z"/>
	<path d="M802.9,324.6c0,10,0,20,0,30c0,0.5,0,1,0,1.4c-0.1,2.9-0.4,3.2-3.4,3.2c-6.8,0-13.6,0-20.4,0c-4.3,0-8.6,0-13,0
		c-0.9,0-1.8-0.1-2.6-0.2c-1.2-0.2-1.9-0.9-2-2.1c-0.1-1.3-0.3-2.7-0.3-4.1c0-19.9,0-39.8,0-59.8c0-0.5,0-1,0-1.4
		c0.2-2,1-2.9,2.9-3.2c0.5-0.1,1-0.1,1.4-0.1c10.6,0.1,21.3,0.1,31.9,0.2c4.7,0,5.4,0.8,5.4,5.4
		C802.9,304.3,802.9,314.4,802.9,324.6z M801.9,358.1c0-1.2,0-2.3,0-3.3c0-20.2,0-40.4,0-60.7c0-4.1-0.4-4.5-4.5-4.5
		c-10.3,0-20.6,0-30.9-0.1c-4.1,0-4.4,0.2-4.4,4.3c0,16.8,0,33.6,0,50.3c0,3.4,0,6.7,0.1,10.1c0.1,3.9,0.3,4.1,4.1,4.1
		c11,0,22.1,0,33.1,0C800,358.3,800.7,358.2,801.9,358.1z"/>
	<path d="M605.5,400c2-0.1,3.9-0.4,5.8-0.4c19.7,0,39.3,0,59,0c0.2,0,0.5,0,0.7,0c3.5,0.1,4.2,0.8,4.2,4.3
		c0.1,10.9,0.1,21.9,0.1,32.8c0,0.2,0,0.5,0,0.7c0,3.3-0.5,3.8-3.8,3.8c-7.7,0-15.3,0-23,0c-10.1,0-20.1,0.1-30.2,0.1
		c-2.9,0-5.8-0.1-8.6-0.1c-0.6,0-1.3,0-1.9-0.2c-1.9-0.4-2.8-1.4-2.9-3.3c-0.1-1.8-0.1-3.7-0.1-5.5c0.1-9.3,0.1-18.7,0.2-28
		C605.1,402.8,605.4,401.5,605.5,400z M606.5,400.9c-0.1,0.6-0.3,1.1-0.3,1.5c-0.1,4.1-0.2,8.1-0.3,12.2c-0.1,7.4-0.1,14.7-0.1,22.1
		c0,2.7,0.7,3.4,3.4,3.5c2.3,0.1,4.6,0.1,7,0.1c18.3,0,36.6,0,54.9-0.1c3.1,0,3.2-0.2,3.3-3.2c0-0.3,0-0.6,0-1
		c-0.1-10.5-0.1-20.9-0.2-31.4c0-4-0.2-4.1-4.2-4.1c-19.6,0-39.2,0-58.8,0C609.7,400.5,608.1,400.7,606.5,400.9z"/>
	<path d="M894.2,634.5c-2.5,0.1-4.7,0.4-6.8,0.4c-9.7,0-19.4,0-29,0c-0.6,0-1.1,0-1.7,0c-4.5-0.1-5.2-0.8-5.3-5.4
		c0-19.7,0-39.3,0-59c0-0.6,0-1.1,0.1-1.7c0.2-1.2,0.8-1.9,2.1-1.9c0.6,0,1.1,0,1.7,0c11.7,0,23.4,0,35,0c0.4,0,0.8,0,1.2,0
		c2.3,0.1,2.9,0.8,3,3.1c0,0.4,0,0.8,0,1.2c0,19.6,0,39.2,0,58.8C894.4,631.4,894.3,632.8,894.2,634.5z M893.3,633.6
		c0.1-1.5,0.2-2.6,0.2-3.8c0-19.4,0-38.9,0-58.3c0-3.6,0-3.6-3.6-3.6c-11.5,0-23,0-34.5,0c-0.9,0-1.7,0.1-2.7,0.1
		c-0.1,1.1-0.2,2.1-0.2,3c0,19.4,0,38.9,0,58.3c0,1,0.1,1.9,0.2,2.9c0.1,0.9,0.6,1.5,1.5,1.6c1.2,0.1,2.4,0.3,3.6,0.3
		c10,0,20,0,30,0C889.5,633.9,891.2,633.7,893.3,633.6z"/>
	<path d="M605.5,442.5c1.8-0.2,3.3-0.4,4.8-0.4c20.2,0,40.5,0,60.7-0.1c0.5,0,1,0,1.4,0c1.8,0.2,2.6,0.9,2.9,2.6
		c0.1,0.9,0.1,1.8,0.1,2.6c0,9.1-0.1,18.2-0.1,27.3c0,1.7,0.1,3.4,0.1,5c-0.1,2.6-0.7,3.2-3.3,3.2c-10.7,0-21.4,0-32.1,0
		c-9.8,0-19.7,0-29.5,0c-4.9,0-5.4-0.5-5.4-5.3c0-10.2,0.1-20.5,0.2-30.7C605.1,445.5,605.3,444.2,605.5,442.5z M606.3,443.3
		c-0.1,1.7-0.3,3-0.3,4.3c-0.1,10.4-0.1,20.8-0.2,31.2c0,0.3,0,0.6,0.1,1c0.2,1.5,0.6,2,2.1,2.1c1,0.1,2.1,0.1,3.1,0.1
		c17,0,34,0,51.1,0c3.2,0,6.4,0,9.6,0c2.3,0,2.6-0.3,2.6-2.7c0-1.5-0.1-3-0.1-4.6c0-9.2,0.1-18.4,0.1-27.6c0-0.9-0.1-1.8-0.2-2.6
		c-0.1-0.9-0.7-1.4-1.6-1.5c-0.7-0.1-1.4-0.1-2.2-0.1c-6.6,0-13.1,0-19.7,0c-13.3,0-26.7,0-40,0C609.4,443,608,443.2,606.3,443.3z"
		/>
	<path d="M1015.4,399.8c10,0,20,0,30,0c0.7,0,1.4,0,2.2,0c1.9,0.2,2.7,1,3,2.8c0.2,1.3,0.3,2.7,0.3,4.1c0,9.8,0,19.7,0,29.5
		c0,0.9,0,1.8-0.2,2.6c-0.3,1.8-1,2.4-2.9,2.6c-0.6,0.1-1.3,0-1.9,0c-19.2,0-38.4,0-57.6,0c-1.5,0-3-0.2-4.5-0.4
		c-1.4-0.2-2.3-1.1-2.5-2.5c-0.1-0.9-0.3-1.9-0.3-2.8c0-10.6,0-21.3-0.1-31.9c0-0.6,0-1.3,0.1-1.9c0.2-1.1,0.9-1.9,2.1-2
		c0.7-0.1,1.4,0,2.2,0C995.3,399.8,1005.4,399.8,1015.4,399.8z M1015.7,400.8c-10,0-20,0-30,0c-0.6,0-1.3,0-1.9,0
		c-1.4,0.1-1.8,0.5-1.9,1.9c0,0.4,0,0.8,0,1.2c0,10.6,0,21.1,0,31.7c0,0.8,0.1,1.6,0.2,2.4c0.2,1.3,0.9,2,2.2,2.2
		c1.3,0.1,2.7,0.3,4.1,0.3c19.1,0,38.2,0,57.4,0c4,0,4.2-0.2,4.2-4.2c0-10,0-20,0-30c0-0.9,0-1.8-0.1-2.6c-0.2-2.4-0.7-2.9-3.1-2.9
		c-0.6,0-1.1,0-1.7,0C1035.2,400.8,1025.4,400.8,1015.7,400.8z"/>
	<path d="M761.4,600.2c0-9.7,0-19.3,0-29c0-3.9,0.2-4.1,4-4.1c11.6,0,23.2,0,34.8,0c0.4,0,0.8,0,1.2,0c2.3,0.2,3,0.7,3,3.1
		c0,3.7,0,7.4,0,11c0,16.4,0,32.8,0,49.1c0,3.9-0.3,4.2-4.3,4.2c-11,0.1-22,0.3-33.1,0.4c-4.9,0-5.6-0.7-5.6-5.5
		C761.4,619.7,761.4,610,761.4,600.2z M762.5,568.3c-0.1,1.1-0.2,2-0.2,3c0,19.3,0,38.7,0,58c0,4.5,0.3,4.8,4.8,4.8
		c10.9-0.1,21.9-0.3,32.8-0.4c3.4,0,3.4,0,3.4-3.5c0-16.1,0-32.3,0-48.4c0-3.6,0.1-7.2,0.1-10.8c0-2.6-0.2-2.8-2.9-2.9
		c-0.2,0-0.3,0-0.5,0c-11.5,0-23,0-34.5,0C764.6,568,763.6,568.2,762.5,568.3z"/>
	<path d="M1050,442.2c0.3,2.8,0.8,5.6,0.8,8.4c0.1,8.8,0,17.6,0,26.4c0,1-0.1,2.1-0.2,3.1c-0.2,1.9-0.6,2.3-2.6,2.4
		c-2.1,0.1-4.2,0.1-6.2,0.1c-11.7,0.1-23.5,0.2-35.2,0.3c-6.8,0.1-13.6,0.1-20.4,0.1c-0.5,0-1,0-1.4,0c-2.5-0.1-3.5-1-3.5-3.5
		c-0.1-3.2,0-6.4,0-9.6c-0.1-7.3-0.2-14.5-0.2-21.8c0-1.7,0.3-3.5,0.5-5.4c1.6-0.2,3-0.5,4.4-0.5c20.7,0,41.4,0,62.1,0
		C1048.6,442.1,1049.2,442.1,1050,442.2z M982.3,443.5c-0.1,1.9-0.3,3.4-0.3,4.9c0.1,10.2,0.2,20.3,0.2,30.5c0,0.4,0,0.8,0,1.2
		c0.1,1.1,0.7,1.7,1.8,1.9c0.6,0.1,1.1,0,1.7,0c20.5-0.1,40.9-0.3,61.4-0.4c0.7,0,1.4-0.1,2.3-0.2c0.1-1,0.3-1.9,0.3-2.9
		c0-9.5,0-19,0-28.5c0-2.3-0.2-4.6-0.9-6.7c-0.4-0.1-0.7-0.1-0.9-0.1c-20.8,0-41.6,0-62.4,0C984.6,443.1,983.6,443.3,982.3,443.5z"
		/>
	<path d="M630,583.7c15.7-15.6,31.3-31.1,47.1-46.8c1.1,1,2.1,1.9,3.1,2.9c7.7,7.6,15.3,15.2,22.9,22.9c2,2,2,3.5-0.2,5.7
		c-6.6,6.6-13.3,13.2-19.9,19.8c-7.3,7.2-14.6,14.4-21.9,21.6c-0.4,0.4-0.8,0.8-1.2,1.1c-1.2,0.9-1.9,0.9-3-0.1c-1.1-1-2.1-2-3.1-3
		c-7.6-7.6-15.1-15.2-22.7-22.8C630.8,584.5,630.5,584.2,630,583.7z M631.4,583.7c4.9,5.6,25.4,25.8,27.3,26.8
		c0.7-0.6,1.5-1.3,2.3-2c6-6,12-11.9,18.1-17.9c7.7-7.6,15.4-15.2,23-22.7c2.1-2.1,2.1-2.9,0.1-4.9c-6-6.1-12.1-12.1-18.1-18.2
		c-2.2-2.2-4.4-4.3-6.8-6.6C661.9,553.4,646.7,568.5,631.4,583.7z"/>
	<path d="M680.8,288.8c0.8,0,1.3-0.1,1.8-0.1c10.1,0,20.2,0,30.2,0c0.6,0,1.1,0,1.7,0.1c1.1,0.1,1.7,0.8,1.8,1.9
		c0.1,0.7,0.1,1.4,0.1,2.2c0,20.9-0.1,41.8-0.1,62.6c0,0.6,0,1.1-0.1,1.7c-0.2,1.3-0.9,2-2.2,2.2c-0.6,0.1-1.3,0.1-1.9,0.1
		c-9,0-18.1,0-27.1,0c-0.6,0-1.1,0-1.7,0c-1.6-0.2-2.4-0.9-2.7-2.6c-0.1-0.6-0.1-1.3-0.1-1.9c0-21,0-42.1,0-63.1
		C680.5,290.8,680.7,289.9,680.8,288.8z M681.5,289.9c0,1.5,0,2.9,0,4.4c0,20,0,40,0,60c0,3.9,0.3,4.2,4.2,4.2c8.7,0,17.4,0,26.2,0
		c0.6,0,1.1,0,1.7-0.1c1.1-0.1,1.8-0.7,1.8-1.8c0-0.5,0-1,0-1.4c0-20.7,0.1-41.4,0.1-62.2c0-0.9-0.1-1.9-0.1-2.7
		C713.4,289.5,686,289.3,681.5,289.9z"/>
	<path d="M605.4,363.4c1.4,0,2.3,0,3.3,0c19.5,0,39,0,58.5,0c1.7,0,3.4-0.1,5-0.1c2.5,0,3.3,0.8,3.3,3.3c0,8.6-0.2,17.1-0.2,25.6
		c0,1.3,0,2.6-0.1,3.8c-0.1,1.7-1.1,2.8-2.8,2.9c-1.1,0.1-2.2,0-3.4,0c-19,0-38,0-57.1,0c-1.2,0-2.4,0-3.6-0.2
		c-2.1-0.4-3-1.4-3.3-3.5c-0.1-0.9-0.1-1.9-0.1-2.9c0-7.4,0-14.9,0-22.3C605,367.9,605.3,365.7,605.4,363.4z M606.3,364.3
		c-0.1,1.9-0.4,3.6-0.4,5.4c0,7.5,0,15,0,22.5c0,0.9,0,1.8,0.1,2.6c0.2,1.9,0.9,2.7,2.8,3c1.1,0.1,2.2,0.1,3.3,0.1
		c19.7,0,39.3,0,59,0c2.6,0,3.1-0.5,3.1-3.1c0.1-6.5,0.2-12.9,0.3-19.4c0-2.9,0-5.8,0-8.6c0-2.4-0.4-2.7-2.8-2.7
		c-1.5,0-3,0.1-4.6,0.1c-19.3,0-38.5,0-57.8,0C608.5,364.3,607.5,364.3,606.3,364.3z"/>
	<path d="M981.5,363.4c1,0,1.8,0,2.5,0c20.3,0,40.6,0,60.9,0c5.2,0,5.9,0.7,5.9,6c0,8.1,0,16.2,0,24.2c0,0.6,0,1.1,0,1.7
		c-0.1,2.8-0.9,3.6-3.6,3.6c-20.5,0-40.9,0-61.4,0c-3.6,0-4.8-1.2-4.8-4.7c0-8.6,0-17.1,0-25.7C981,366.9,981.3,365.3,981.5,363.4z
		 M982.3,364.3c-0.2,2-0.4,3.7-0.4,5.4c0,7.8,0,15.5,0,23.3c0,4.3,0.6,4.9,4.8,4.9c15.7,0,31.3,0,47,0c4.5,0,9,0,13.4,0
		c2.3,0,2.6-0.4,2.7-2.6c0-0.5,0-1,0-1.4c0-8.2,0-16.3,0-24.5c0-4.7-0.3-5-5.1-5c-20,0-40,0-60,0C984,364.3,983.3,364.3,982.3,364.3
		z"/>
	<path d="M937.8,605.2c0,8.4,0,16.8,0,25.2c0,0.7,0,1.4,0,2.2c-0.2,1.7-0.8,2.4-2.6,2.5c-0.4,0-0.8,0-1.2,0c-10.5,0-21,0-31.4,0
		c-1.1,0-2.2,0-3.4-0.1c-1.6-0.2-2.2-0.8-2.4-2.5c-0.1-1-0.1-2.1-0.1-3.1c0-16.6,0-33.1,0-49.7c0-4.5,0.1-4.6,4.5-4.6
		c10.5,0,21,0,31.4,0c0.5,0,1,0,1.4,0c3,0.1,3.6,0.7,3.7,3.7C937.8,587.6,937.7,596.4,937.8,605.2
		C937.8,605.2,937.8,605.2,937.8,605.2z M897.8,576.2c-0.1,1.3-0.2,2.2-0.2,3.2c0,4.8,0,9.6,0,14.4c0,12.2,0,24.5,0,36.7
		c0,3.3,0.3,3.6,3.5,3.6c0.1,0,0.2,0,0.2,0c10.9,0,21.8,0,32.6,0c2.5,0,2.8-0.2,2.8-2.7c0-17.6-0.1-35.2-0.1-52.8
		c0-2.2-0.3-2.5-2.5-2.6c-0.3,0-0.6,0-1,0c-10.9,0-21.8,0-32.6,0C899.8,576,899,576.1,897.8,576.2z"/>
	<path d="M758.3,605.5c0,8.3,0,16.6,0,25c0,0.7,0,1.4-0.1,2.2c-0.2,1.4-0.9,2.1-2.3,2.4c-0.5,0.1-1,0.1-1.4,0.1
		c-11,0-21.9-0.1-32.9-0.1c-0.5,0-1,0-1.4,0c-2.3-0.3-3.1-1.1-3.3-3.4c-0.1-1.4-0.1-2.7-0.1-4.1c0-15.5,0-31,0-46.6
		c0-1.3,0-2.6,0.1-3.8c0.1-1.2,0.8-1.9,2-2c0.6-0.1,1.3,0,1.9,0c10.9,0,21.8,0,32.6,0c0.5,0,1,0,1.4,0c2.3,0.2,3.1,1,3.2,3.3
		c0.1,3.3,0.1,6.6,0.1,9.8C758.3,594,758.3,599.8,758.3,605.5z M757.3,605.2c0-2.6,0-5.3,0-7.9c0-6.2,0-12.3-0.1-18.5
		c0-2.2-0.5-2.7-2.7-2.8c-0.6,0-1.3,0-1.9,0c-9.6,0-19.2,0-28.8,0c-1.4,0-2.7,0-4.1,0c-1.6,0.1-1.8,0.3-1.9,1.8c0,0.4,0,0.8,0,1.2
		c0,17,0,34,0,51.1c0,3.4,0.5,3.8,3.9,3.9c0.2,0,0.5,0,0.7,0c8.5,0,16.9,0,25.4,0c2.3,0,4.6,0.1,7,0c2.1,0,2.5-0.4,2.5-2.6
		c0-0.6,0-1.1,0-1.7C757.3,621.6,757.3,613.4,757.3,605.2z"/>
	<path d="M807.5,604.1c0-8.4,0-16.8,0-25.2c0-0.5,0-1,0-1.4c0.2-1.6,0.8-2.3,2.4-2.4c0.8-0.1,1.6,0,2.4,0c10.6,0,21.1,0,31.7,0
		c0.7,0,1.4,0,2.2,0c1.8,0.2,2.6,0.8,2.9,2.6c0.2,0.8,0.2,1.6,0.2,2.4c0,16.8,0,33.6,0,50.4c0,0.5,0,1,0,1.4c-0.2,2-1.1,2.9-3.1,3
		c-1.7,0.1-3.4,0-5,0c-9,0-18.1,0-27.1,0c-1.1,0-2.2-0.1-3.3-0.2c-2-0.4-2.9-1.3-3.1-3.4c-0.1-1.2-0.1-2.4-0.1-3.6
		C807.5,619.8,807.5,612,807.5,604.1C807.5,604.1,807.5,604.1,807.5,604.1z M848.3,605c0-8.4,0-16.8,0-25.2c0-3.4-0.5-3.9-3.9-3.9
		c-0.2,0-0.5,0-0.7,0c-10.1,0-20.3,0-30.4,0c-4.9,0-4.8-0.6-4.8,4.8c0,15.6,0,31.2,0,46.7c0,1.2,0,2.4,0.1,3.6
		c0.2,1.7,0.7,2.3,2.3,2.6c1.1,0.2,2.2,0.3,3.3,0.3c8.6,0,17.3,0,25.9-0.1c1.6,0,3.2,0.1,4.8,0.1c2.9,0,3.4-0.5,3.4-3.3
		c0-0.5,0-1,0-1.4C848.3,621.2,848.3,613.1,848.3,605z"/>
	<path d="M977.6,530.9c0.7-1.4,1.6-1,2.5-0.6c3.6,1.6,7.1,3.2,10.7,4.8c17.8,8,35.5,16.1,53.3,24.1c0.9,0.4,1.8,0.8,2.5,1.3
		c1.1,0.8,1.2,1.5,0.5,2.7c-0.5,0.7-1,1.4-1.7,2c-5,4.8-9.9,9.5-14.9,14.3c-2,1.9-3.3,1.9-5.3-0.1c-1.8-1.7-3.5-3.5-5.2-5.3
		c-13.4-13.5-26.7-27.1-40.1-40.6C979.1,532.7,978.3,531.8,977.6,530.9z M979.8,531.3c-0.1,0.1-0.2,0.3-0.3,0.4
		c0.9,0.9,1.8,1.9,2.7,2.8c8.4,8.5,16.7,17,25.1,25.4c6.2,6.3,12.4,12.5,18.6,18.7c1.7,1.7,2.4,1.7,4,0.2c5-4.8,10.1-9.6,15.1-14.4
		c0.7-0.7,1.2-1.6,2-2.7C1024.4,551.4,1002.1,541.3,979.8,531.3z"/>
	<path d="M944.9,563.5c1,0.9,1.9,1.6,2.7,2.5c15.2,15.3,30.3,30.7,45.5,46c0.3,0.3,0.7,0.7,1,1.1c0.8,1.2,0.8,1.9-0.1,3
		c-0.4,0.5-0.9,0.9-1.4,1.3c-5.6,4.9-11.2,9.8-16.7,14.7c-2.1,1.8-3.4,1.6-4.5-1.1c-2.9-7.1-5.8-14.2-8.7-21.3
		c-5.9-14.4-11.8-28.8-17.7-43.2C944.5,565.7,943.6,564.8,944.9,563.5z M994,614.6c-15.7-16.6-31.9-32.5-48-48.5
		c0.1,0.9,0.4,1.7,0.7,2.5c5.7,14,11.5,27.9,17.2,41.9c2.8,6.7,5.5,13.5,8.3,20.2c0.8,2,1.4,2.2,2.9,0.9c5.7-5,11.4-10,17.1-15
		C992.8,615.9,993.3,615.3,994,614.6z"/>
	<path d="M605.6,526.4c23.4,0,46.6,0,70,0c-0.8,2-2.1,3.1-3.8,3.8c-9.3,4.1-18.6,8.2-27.8,12.4c-11.1,5.1-22.1,10.3-33.2,15.5
		c-0.8,0.4-1.6,0.8-2.4,1c-1.8,0.6-2.8-0.1-2.9-2c-0.1-1.4-0.1-2.9-0.1-4.3c-0.1-7.3-0.2-14.7-0.2-22
		C605.1,529.4,605.4,527.9,605.6,526.4z M674,527.7c-2.3-0.7-65.3-0.7-67.4-0.2c-0.8,3.2-0.6,28,0.3,30.9c0.9-0.3,1.9-0.5,2.8-1
		c11-5.1,22-10.3,33-15.4c9.4-4.3,19-8.5,28.5-12.7C672.1,529,672.9,528.4,674,527.7z"/>
	<path d="M979.6,526.9c1.1-0.4,1.5-0.7,2.1-0.7c1.1-0.1,2.2-0.1,3.4-0.1c20.3,0,40.6,0,60.9,0c0.6,0,1.1,0,1.7,0
		c1.7,0.2,2.6,1,2.8,2.7c0.1,0.5,0,1,0,1.4c0,8.7,0,17.4,0,26.2c0,3.2-0.6,3.6-3.5,2.2c-20.8-9.6-41.7-19.1-62.5-28.7
		c-1-0.5-2-1-3-1.5C980.9,528.1,980.5,527.6,979.6,526.9z M981.4,527.1c3.6,2.4,66.1,30.8,67.9,31c0-0.6,0.1-1.2,0.1-1.8
		c0-8.7,0-17.4,0-26.2c0-0.2,0-0.5,0-0.7c-0.1-1.7-0.6-2.3-2.3-2.4c-0.4,0-0.8,0-1.2,0c-20.6,0-41.1,0-61.7,0
		C983.5,527,982.7,527.1,981.4,527.1z"/>
	<path d="M925.9,481.6c0-1.3,0-2.5,0-3.7c0-10.8,0.1-21.6,0.1-32.4c0-0.5,0-1,0-1.4c0.1-1.9,0.6-2.4,2.5-2.4c1.9-0.1,3.8,0,5.8,0
		c13.1,0,26.2,0,39.4,0c1.1,0,2.2,0.1,3.4,0.2c0,13.4,0,26.5,0,39.7C960,481.6,943.1,481.6,925.9,481.6z M975.9,480.6
		c0.5-3.9,0.3-36.3-0.3-38.1c-0.7,0-1.5,0-2.3,0c-14.5,0-29,0-43.4,0c-0.5,0-1,0-1.4,0c-1,0-1.5,0.5-1.5,1.5c0,0.5,0,1,0,1.4
		c0,10.9-0.1,21.8-0.1,32.6c0,0.8,0,1.6,0,2.5C943.4,480.6,959.7,480.6,975.9,480.6z"/>
	<path d="M607.7,561.5c23.7-10.8,47-21.4,70.8-32.3c-1.6,2.7-3,4.9-4.8,6.8c-8,8.1-16,16.1-23.9,24.2c-6.1,6.1-12.1,12.3-18.1,18.5
		c-0.2,0.2-0.4,0.5-0.7,0.7c-2,1.9-3.4,1.9-5.4,0c-2.4-2.3-4.7-4.6-7-6.9c-2.8-2.8-5.7-5.6-8.5-8.4
		C609.2,563.4,608.6,562.6,607.7,561.5z M675.5,532.2c-0.1-0.1-0.3-0.3-0.4-0.4c-21.9,10-43.8,20-65.9,30c0.5,0.6,0.8,1,1.1,1.4
		c3.5,3.4,7,6.8,10.4,10.2c1.7,1.7,3.4,3.4,5.1,5c1.8,1.8,2.4,1.8,4.2,0.1c0.2-0.2,0.3-0.3,0.5-0.5c14-14.2,28-28.3,41.9-42.5
		C673.7,534.6,674.6,533.4,675.5,532.2z"/>
	<path d="M679.1,481.9c0-0.7-0.1-1.4-0.1-2.1c0-11.7,0-23.4,0-35c0-0.2,0-0.5,0-0.7c0.1-2.2,0.7-2.9,2.9-2.9c4.2,0,8.5,0,12.7,0.1
		c9.7,0.1,19.4,0.2,29,0.3c4.9,0.1,5.6,0.7,5.7,5.7c0,10.9,0,21.8,0,32.6c0,0.6,0,1.3,0,1.9C727.6,482.3,681.4,482.4,679.1,481.9z
		 M728.3,481.1c0-0.8,0.1-1.4,0.1-2.1c0-10.6,0-21.1,0-31.7c0-4.4-0.4-4.8-4.8-4.8c-7.9-0.1-15.8-0.2-23.7-0.3
		c-5.8-0.1-11.7-0.1-17.5-0.1c-2.1,0-2.3,0.3-2.4,2.3c0,0.3,0,0.6,0,1c0,11,0,22.1,0,33.1c0,0.8,0,1.6,0,2.6
		C696.2,481.1,712.1,481.1,728.3,481.1z"/>
	<path d="M711.7,563.6c-0.7,2.3-1.1,4.6-2,6.8c-7.9,19.4-15.8,38.7-23.8,58.1c-0.7,1.8-1.8,3.5-2.8,5.6c-4.4-3.8-8.6-7.4-12.8-11
		c-2.5-2.2-5-4.4-7.6-6.6c-2.2-2-2.3-3-0.2-5.1c13.5-13.4,27-26.8,40.5-40.2c2.7-2.6,5.4-5.2,8.1-7.8
		C711.2,563.5,711.5,563.6,711.7,563.6z M710.2,566.5c-0.2-0.1-0.4-0.2-0.6-0.3c-1.7,1.7-3.5,3.3-5.2,5
		c-13.7,13.6-27.3,27.1-41,40.7c-2,2-1.9,2.3,0.1,4.2c4.8,4.2,9.6,8.4,14.4,12.6c1.5,1.3,3.1,2.5,4.8,3.9c0.8-1.5,1.5-2.7,2-4
		C693.3,607.8,701.8,587.1,710.2,566.5z"/>
	<path d="M848.8,537.8c0,6.9,0,13.8,0,20.6c0,0.6,0,1.1,0,1.7c-0.1,1.7-0.7,2.2-2.4,2.2c-11.7-0.1-23.3-0.2-35-0.4
		c-0.4,0-0.8,0-1.2,0c-2.3-0.2-3.1-1-3.2-3.3c0-3.5,0.1-7,0.1-10.6c0.1-10,0.2-20,0.3-30c0-1,0-2.1,0.1-3.1c0.2-1.7,0.7-2.2,2.4-2.4
		c0.6-0.1,1.1-0.1,1.7-0.1c11.1,0,22.2,0.1,33.3,0.1c3,0,3.9,1.4,3.8,3.9C848.8,523.6,848.8,530.7,848.8,537.8z M847.9,538
		c0-7.1,0-14.2,0-21.4c0-2.7-0.3-3-3-3.1c-0.3,0-0.6,0-1,0c-10.2,0-20.5-0.1-30.7,0c-4.7,0-4.7-0.6-4.8,4.7c-0.1,10-0.2,20-0.3,30
		c0,3.4-0.1,6.9-0.1,10.3c0,1.9,0.5,2.4,2.4,2.6c0.3,0,0.6,0,1,0c11.7,0.1,23.3,0.2,35,0.3c1,0,1.5-0.3,1.5-1.3c0-0.6,0-1.1,0-1.7
		C847.9,551.6,847.9,544.8,847.9,538z"/>
	<path d="M783.3,512.6c5.8,0,11.5,0,17.3,0c3,0,3.6,0.7,3.6,3.7c0.1,12.8,0.2,25.6,0.2,38.3c0,1.4,0,2.7-0.1,4.1
		c-0.1,2.3-0.8,2.9-3,3.2c-0.7,0.1-1.4,0.1-2.2,0.1c-10.8,0-21.6,0-32.4,0c-0.4,0-0.8,0-1.2,0c-2.3-0.2-3-0.8-3.1-3.1
		c-0.2-5.2-0.4-10.4-0.5-15.6c-0.1-8.7,0-17.4,0-26.1c0-0.5,0-1,0-1.4c0.2-2.2,1.1-3.1,3.4-3.2C771.3,512.6,777.3,512.6,783.3,512.6
		z M762.9,537.4c0,1.8,0,3.7,0,5.5c0.1,5.3,0.3,10.5,0.5,15.8c0.1,1.7,0.5,2.1,2.1,2.3c0.4,0,0.8,0,1.2,0c10.9,0,21.7,0,32.6,0
		c0.8,0,1.6-0.1,2.4-0.2c1-0.1,1.6-0.7,1.6-1.7c0-1.3,0.2-2.6,0.2-3.8c-0.1-7.3-0.2-14.5-0.2-21.8c0-5.4,0-10.9,0-16.3
		c0-0.6,0-1.3,0-1.9c-0.1-1-0.6-1.6-1.6-1.7c-0.5,0-1-0.1-1.4-0.1c-11.3,0-22.7,0-34,0c-2.7,0-3.2,0.4-3.2,3.2
		C762.9,523.7,762.9,530.6,762.9,537.4z"/>
	<path d="M605,484.4c1.2,0,2,0,2.9,0c21,0.1,41.9,0.1,62.9,0.2c4.1,0,4.5,0.4,4.5,4.6c0,4,0,8,0,12c0,2.9-0.5,3.3-3.4,3.3
		c-21,0-42.1,0-63.1,0c-0.3,0-0.6,0-1,0c-2-0.2-2.8-1-2.9-3.1c0-4.5,0-9,0-13.4C605,486.9,605,485.9,605,484.4z M606.2,485.4
		c-0.1,0.6-0.2,1-0.2,1.4c0,4.8-0.1,9.6,0,14.4c0,1.9,0.4,2.2,2.2,2.3c0.6,0,1.3,0,1.9,0c19.7,0,39.5,0,59.2,0c1,0,2.1,0.1,3.1,0
		c1.5-0.1,1.9-0.3,1.9-1.8c0-4.6,0-9.3-0.1-13.9c0-1.8-0.4-2-2.2-2.2c-0.5,0-1,0-1.4,0c-6.4,0-12.8-0.1-19.2-0.1
		c-14.2,0-28.5-0.1-42.7-0.1C608,485.4,607.1,485.4,606.2,485.4z"/>
	<path d="M851.6,537.2c0-6.8,0-13.6,0-20.4c0-0.7,0-1.4,0.1-2.2c0.1-1.2,0.8-1.9,2-2c0.6-0.1,1.3,0,1.9,0c11,0,22.1,0.1,33.1,0
		c3,0,4.2,0.8,4.2,4.1c0,9.7-0.1,19.3-0.1,29c0,3.9,0.1,7.8,0.1,11.7c0,0.6,0.1,1.1,0,1.7c-0.2,2.3-1.1,3.1-3.4,3.2
		c-1.1,0.1-2.2,0-3.4,0c-9.9,0-19.8,0-29.7,0c-0.6,0-1.1,0-1.7,0c-2.6-0.1-3.3-0.8-3.3-3.3c0-4.6,0.1-9.1,0.1-13.7
		C851.6,542.7,851.5,539.9,851.6,537.2C851.6,537.2,851.6,537.2,851.6,537.2z M852.6,537.4C852.5,537.4,852.5,537.4,852.6,537.4
		c-0.1,2.3-0.1,4.6-0.1,7c0,4.9-0.1,9.8-0.1,14.6c0,2,0.4,2.4,2.4,2.5c0.5,0,1,0,1.4,0c10,0,20,0,30,0c1.1,0,2.2,0.1,3.4,0
		c1.7-0.1,2.3-0.7,2.4-2.4c0.1-1.4-0.1-2.7,0-4.1c0-12.2,0.1-24.5,0.1-36.7c0-0.8,0-1.6-0.1-2.4c-0.2-1.8-0.7-2.2-2.4-2.3
		c-0.6,0-1.1,0-1.7,0c-8.6,0-17.3,0-25.9,0c-2.4,0-4.8,0-7.2,0c-1.7,0-1.9,0.3-2.1,1.9c0,0.6,0,1.1,0,1.7
		C852.6,523.9,852.6,530.6,852.6,537.4z"/>
	<path d="M1050.7,504.4c-1.1,0-1.8,0-2.6,0c-20.9,0-41.9,0-62.8,0c-4.1,0-4.3-0.2-4.3-4.3c0.1-4.2,0.2-8.5,0.3-12.7
		c0.1-2.5,0.6-3.2,3.1-3.2c4.8,0,9.6,0,14.4,0.1c15.1,0,30.2,0,45.3,0.1c0.9,0,1.8,0,2.6,0c2.9,0.2,3.9,1.3,4.1,4.2
		c0,0.2,0,0.3,0,0.5c0,4.6,0,9.3,0,13.9C1050.9,503.4,1050.8,503.7,1050.7,504.4z M1049.9,503.3c0-2.2,0-4.3,0-6.3
		c0-2.8,0.1-5.6,0-8.4c-0.1-2.4-0.9-3.1-3.2-3.3c-0.9-0.1-1.8,0-2.6,0c-17.8,0-35.6-0.1-53.5-0.1c-2.1,0-4.2-0.1-6.2,0
		c-1.7,0-2,0.3-2,2c-0.1,4.8-0.2,9.6-0.3,14.4c0,1.5,0.3,1.8,1.8,1.9c0.5,0,1,0,1.4,0c20.7,0,41.4,0,62.1,0
		C1048.1,503.5,1048.9,503.4,1049.9,503.3z"/>
	<path d="M674.8,524.9c-0.7,0-1.6,0-2.4,0c-20,0-40,0-60,0c-1.4,0-2.7-0.1-4.1-0.2c-2.2-0.3-3.3-1.2-3.3-3.4c-0.1-5.1,0-10.2,0-15.7
		c1.1,0,2,0,3,0c14.8,0,29.6,0,44.4,0c6,0,12-0.1,18-0.1c0.7,0,1.4,0,2.2,0.1c1.8,0.3,2.7,1.1,2.7,2.8c0.1,5.3,0,10.5,0,15.8
		C675.1,524.4,675,524.5,674.8,524.9z M605.9,506.6c0,5,0,9.7,0,14.5c0,0.2,0,0.3,0.1,0.5c0.2,1.3,0.9,2.1,2.2,2.2
		c1.3,0.1,2.5,0.3,3.8,0.3c19.9,0,39.8,0,59.7,0c0.8,0,1.6,0,2.5,0c0-5.3,0-10.4,0-15.4c0-1.1-0.6-1.8-1.7-2
		c-0.7-0.1-1.4-0.1-2.1-0.1c-5.6,0-11.2,0.1-16.8,0.1c-14.9,0-29.7,0-44.6,0C608,506.6,607.1,506.6,605.9,506.6z"/>
	<path d="M1015.8,505.2c9.8,0,19.7,0,29.5,0c4.7,0,5.6,0.9,5.6,5.6c0,3.8-0.1,7.5-0.2,11.3c-0.1,2.5-1.3,3.6-3.8,3.6
		c-19.8,0-39.6,0-59.4-0.1c-1,0-1.9,0-2.9-0.1c-2.6-0.4-3.6-1.5-3.7-4.2c-0.1-3.4,0-6.7,0-10.1c0-1-0.1-1.9,0-2.9
		c0.1-1.9,0.9-2.7,2.8-3c0.9-0.1,1.8-0.1,2.6-0.1C996.1,505.2,1005.9,505.2,1015.8,505.2z M1015.7,506.1c-9.8,0-19.5,0-29.3,0
		c-0.8,0-1.6,0-2.4,0.1c-1.7,0.2-2.1,0.7-2.2,2.3c0,4.3,0,8.6,0,12.9c0,1.9,0.7,2.6,2.5,2.9c0.6,0.1,1.3,0.2,1.9,0.2
		c20.1,0,40.3,0,60.4,0.1c2.2,0,2.9-0.6,3-2.8c0.1-3.7,0.1-7.3,0.1-11c0-4.2-0.5-4.7-4.7-4.7
		C1035.3,506.1,1025.5,506.1,1015.7,506.1z"/>
	<path d="M942.3,568c9.4,22.2,18.8,44.3,28.3,66.8c-1.2,0.1-1.9,0.1-2.7,0.1c-7.6,0-15.2,0-22.8,0c-4.2,0-4.7-0.5-4.7-4.7
		c0-19.8,0-39.6,0-59.4c0-0.5,0-1,0-1.4C940.4,568.3,941,567.9,942.3,568z M942,569.7c-0.2,0-0.4,0.1-0.6,0.1c0,0.6-0.1,1.1-0.1,1.7
		c0,19.7,0,39.3,0,59c0,0.6,0,1.1,0.1,1.7c0,0.9,0.6,1.5,1.5,1.6c0.6,0.1,1.1,0.2,1.7,0.2c7.6,0,15.2,0,22.8,0c0.5,0,1-0.2,1.7-0.3
		C960,612.2,951,591,942,569.7z"/>
	<path d="M715,568.4c0.1,1.6,0.3,3.2,0.3,4.8c0,19.3,0.1,38.7,0.1,58c0,2.8-0.8,3.7-3.5,3.7c-6.9,0-13.7,0-20.6-0.1
		c-2-0.1-4-0.7-6.3-1.1c2.1-4.8,4-9.2,5.9-13.7c7.1-16.6,14.2-33.2,21.4-49.7c0.2-0.4,0.3-0.7,0.5-1.1
		C713.1,568.1,713.8,568,715,568.4z M714.1,569.6c-0.2,0-0.3,0-0.5-0.1c-9,21-18,42-27.2,63.3c1.6,0.3,2.9,0.8,4.2,0.8
		c7.1,0.1,14.2,0.2,21.3,0.2c2,0,2.5-0.6,2.5-2.6c0-2.6-0.1-5.1-0.1-7.7c0-17.1,0-34.2,0-51.3C714.4,571.4,714.2,570.5,714.1,569.6z
		"/>
	<path d="M977,524.8c-2.2-0.9-4.1-1.7-5.9-2.4c-13.8-5.5-27.6-10.9-41.4-16.4c-3.5-1.4-3.9-2.2-3.8-5.9c0.2-4.2,0.1-8.5,0.2-12.7
		c0-0.6,0-1.3,0-1.9c0.1-1.6,0.6-2.1,2.2-2.3c0.6-0.1,1.1,0,1.7,0c14.5,0,28.9,0,43.4,0c0.1,0,0.2,0,0.2,0c3.3,0,3.8,0.5,3.8,3.7
		c0,11.2,0,22.4,0,33.6C977.4,521.7,977.1,523.1,977,524.8z M927.2,484.3c-0.1,1.1-0.2,2-0.2,3c-0.1,4.2,0,8.5-0.1,12.7
		c-0.1,3.6,0,3.9,3.3,5.2c14.8,5.9,29.5,11.7,44.3,17.6c0.5,0.2,1,0.3,1.7,0.5c0.1-1.1,0.2-1.9,0.2-2.8c0-11.2,0-22.4,0-33.6
		c0-2.7-0.2-2.9-2.8-2.9c-14.6,0-29.1,0-43.7,0C929.1,484,928.2,484.2,927.2,484.3z"/>
	<path d="M703.9,483.2c6.8,0,13.6,0,20.4,0c0.6,0,1.1,0,1.7,0.1c2.1,0.2,2.9,1,2.9,3c0.1,5.2,0.1,10.4,0.2,15.6
		c0,2.3-1.2,3.5-3.1,4.3c-5.6,2.3-11.2,4.6-16.8,6.9c-8.6,3.5-17.3,7.1-25.9,10.6c-3.7,1.5-4.2,1.2-4.2-2.7c0-11.3,0-22.5,0-33.8
		c0-0.5,0-1,0.1-1.4c0.2-1.6,0.8-2.3,2.4-2.5c0.8-0.1,1.6-0.1,2.4-0.1C690.4,483.1,697.1,483.1,703.9,483.2
		C703.9,483.1,703.9,483.1,703.9,483.2z M680,523.7c1.1-0.3,1.7-0.5,2.3-0.7c14.4-5.9,28.8-11.8,43.2-17.7c2.2-0.9,2.6-1.6,2.6-4
		c-0.1-4.1-0.1-8.1-0.2-12.2c-0.1-4.4,0.9-4.9-4.8-4.9c-13.3,0-26.7-0.1-40-0.1c-2.7,0-3.2,0.4-3.2,3.2c0,11.2,0,22.4,0,33.6
		C679.8,521.7,679.9,522.5,680,523.7z"/>
	<path d="M951.5,439.9c-7.1,0-14.2,0-21.3,0c-3.9,0-4.1-0.2-4.2-4c-0.1-4.1-0.2-8.3-0.2-12.5c0-3.4,0.5-4.3,3.7-5.6
		c11.5-4.7,23.1-9.3,34.6-14c1.4-0.6,2.8-1.1,3.6-2.6c0.2-0.4,0.8-0.8,1.3-0.9c1.4-0.4,2.8-0.8,4.2-1c2.3-0.3,3.5,0.6,3.8,2.9
		c0.3,2.6,0.4,5.3,0.4,7.9c0,7.9-0.1,15.8-0.1,23.7c0,1.3-0.1,2.6-0.1,3.8c0,1.3-0.7,1.9-1.9,2c-0.9,0.1-1.8,0.1-2.6,0.1
		C965.6,439.9,958.6,439.9,951.5,439.9z M927.1,438.5c3,0.7,47,0.5,49-0.1c0.1-1,0.2-2,0.2-3c0-9.6,0.1-19.2,0.1-28.8
		c0-1.4-0.1-2.9-0.4-4.3c-0.1-0.7-0.7-1.5-1.3-1.8c-1.2-0.6-5.6,0.6-6.4,1.7c-0.8,1.2-1.9,1.8-3.2,2.3c-11.6,4.7-23.3,9.4-34.9,14.1
		c-3.2,1.3-3.5,1.7-3.4,5.2c0,3.7,0.1,7.4,0.1,11C926.9,436,927,437.2,927.1,438.5z"/>
	<path d="M704.3,439.9c-6.7,0-13.4,0-20.1,0c-0.6,0-1.3,0-1.9,0c-2.5-0.1-3.1-0.7-3.1-3.2c0-1.5,0-3,0-4.6c0-9.5,0-19,0-28.5
		c0-0.7,0-1.4,0.1-2.2c0.2-1,0.7-1.8,1.7-2.1c3-1.1,5.9-0.3,7.8,2.3c0.9,1.3,2.1,1.9,3.4,2.5c10.8,4.5,21.7,9,32.5,13.5
		c0.6,0.2,1.2,0.5,1.8,0.8c2,0.9,3.1,2.5,3.1,4.7c0,4.7,0,9.4,0,14.2c0,2-0.6,2.6-2.6,2.6c-2.6,0.1-5.1,0-7.7,0
		C714.2,439.9,709.2,439.9,704.3,439.9z M728.4,438.7c0-5.6,0-10.8,0-15.9c0-1.5-0.8-2.6-2.1-3.2c-0.7-0.4-1.5-0.7-2.2-1
		c-10.3-4.3-20.6-8.6-31-12.9c-2.3-1-4.5-1.9-5.9-4.2c-1.1-1.6-4.8-2.1-6.4-1c-0.4,0.3-0.7,0.9-0.8,1.4c-0.1,0.5-0.1,1.1-0.1,1.7
		c0,10.8,0,21.6,0,32.4c0,0.4,0,0.8,0,1.2c0.1,1.5,0.4,1.7,1.9,1.8c0.3,0,0.6,0,1,0c14.3,0,28.6,0,42.9,0
		C726.6,438.9,727.4,438.8,728.4,438.7z"/>
	<path d="M721.2,561.9c0-2.7,0-5.1,0-7.5c0-0.5,0.2-0.9,0.4-1.4c3.1-6.6,6.2-13.2,9.2-19.8c2.6-5.7,5.1-11.4,7.6-17.1
		c1.5-3.4,2.3-3.8,6.1-3.8c3.9,0.1,7.8,0,11.8,0.1c4,0.1,4.7,0.8,4.7,4.9c0,5,0,10.1,0,15.1c0.1,8.5,0.1,17,0.2,25.4
		c0,0.3,0,0.6,0,1c-0.1,2.4-0.6,2.9-3,3c-0.4,0-0.8,0-1.2,0c-11,0-21.9,0-32.9,0C723.2,561.9,722.4,561.9,721.2,561.9z M760.1,560.7
		c0.1-1.1,0.2-1.9,0.2-2.7c-0.1-13.1-0.2-26.2-0.3-39.3c0-0.7,0-1.4,0-2.2c-0.1-2.6-0.5-3-3.2-3.1c-4-0.1-8,0-12-0.1
		c-3.7-0.1-4.2,0.2-5.7,3.5c-4.5,10.1-9,20.1-13.5,30.2c-0.7,1.7-1.3,3.5-2.3,5c-2,2.8-1.3,5.7-1.2,8.7
		C734.9,560.7,747.3,560.7,760.1,560.7z"/>
	<path d="M895.1,561.9c0-0.8-0.1-1.6-0.1-2.4c0-14.2,0-28.5,0-42.7c0-0.5,0-1,0-1.4c0.2-1.9,0.9-2.7,2.9-2.8c1.2-0.1,2.4,0,3.6,0
		c3.4,0,6.9,0,10.3-0.1c2.9,0,4,0.7,5.2,3.3c5.6,13.1,11.2,26.1,16.9,39.2c0.8,1.7,0.8,3.4-0.1,5.1c-0.7,1.3-1.7,2.1-3.3,2
		c-11.4,0-22.9,0-34.3,0C895.9,562.1,895.6,562,895.1,561.9z M896,561.2c3.8,0,7.2,0,10.7,0c7.8,0,15.5,0,23.3,0
		c1.9,0,2.7-0.6,3.3-2.2c0.6-1.5,0.2-2.8-0.4-4.2c-3.8-8.7-7.6-17.4-11.3-26.2c-1.8-4.2-3.6-8.4-5.3-12.6c-0.8-1.9-2-2.8-4.1-2.6
		c-0.7,0.1-1.4,0.1-2.2,0.1c-3.8,0-7.5-0.1-11.3,0c-2.1,0-2.5,0.5-2.6,2.5c0,0.3,0,0.6,0,1c0,13.8,0,27.7,0,41.5
		C896,559.3,896,560.1,896,561.2z"/>
	<path d="M893.2,396c-1,0-1.7,0-2.4,0c-12.1,0-24.1,0-36.2,0c-4.7,0-5.6-1-5.6-5.6c0-7.3,0-14.5,0-21.8c0-0.8,0-1.6,0.1-2.4
		c0.2-1.4,0.9-2.1,2.4-2.3c0.6-0.1,1.1,0,1.7,0c12,0,24,0,36,0c3.2,0,4.1,0.8,4.1,4.1c0,7.8,0,15.7,0.1,23.5
		C893.2,392.9,893.2,394.3,893.2,396z M892,394.9c0.1-0.4,0.2-0.6,0.2-0.7c0-8.7,0-17.4-0.1-26.1c0-2.8-0.5-3.3-3.4-3.3
		c-11.9,0-23.8,0-35.8,0c-0.5,0-1,0-1.4,0c-1,0.1-1.6,0.7-1.7,1.7c0,0.6,0,1.1,0,1.7c0,7.4,0,14.9,0,22.3c0,3.8,0.6,4.5,4.5,4.5
		c11.8,0,23.7,0,35.5,0C890.6,395,891.3,395,892,394.9z"/>
	<path d="M827,396c-5.5,0-11,0-16.5,0c-0.6,0-1.3,0-1.9,0c-2.5-0.2-3.4-1.1-3.4-3.6c0-3.6,0-7.2,0-10.8c0-4.6,0-9.3,0-13.9
		c0-2.9,0.8-3.7,3.7-3.7c11.7,0,23.3,0,35,0c3.4,0,4.5,1.1,4.5,4.4c0,8.1,0.1,16.1,0.1,24.2c0,2.7-0.7,3.4-3.4,3.4
		C839,396,833,396,827,396z M827.1,395c5.8,0,11.7,0,17.5,0c2.7,0,2.9-0.2,2.9-2.8c0-7.6,0-15.2-0.1-22.8c0-4.1-0.5-4.5-4.5-4.5
		c-11,0-22.1,0-33.1,0c-0.5,0-1,0-1.4,0c-1.6,0.1-2.1,0.6-2.2,2.2c0,0.4,0,0.8,0,1.2c0,7.7,0,15.3,0,23c0,0.6,0,1.1,0,1.7
		c0,1.1,0.7,1.8,1.8,1.9c0.7,0.1,1.4,0.1,2.2,0.1C815.7,395,821.4,395,827.1,395z"/>
	<path d="M802.6,364c0.1,0.9,0.1,1.6,0.1,2.3c0,8.7,0.1,17.4,0.1,26.1c0,2.7-0.8,3.5-3.6,3.5c-11.4,0-22.9,0-34.3,0
		c-3.4,0-4.4-1-4.4-4.5c0-7.7,0.1-15.4,0-23c0-1.8,0.7-3,2.2-3.5c1.6-0.5,3.2-1,4.9-1c9.8-0.1,19.7,0,29.5,0
		C798.8,364,800.6,364,802.6,364z M801.7,365c-0.5-0.1-0.8-0.2-1.1-0.2c-11.1,0-22.2,0-33.3,0c-1.2,0-2.5,0.3-3.7,0.7
		c-1.4,0.5-2.1,1.4-2.1,3.1c0.1,7.7,0,15.3,0,23c0,0.5,0,1,0.1,1.4c0.2,1,0.7,1.6,1.7,1.8c0.6,0.1,1.3,0.2,1.9,0.2
		c11.3,0,22.5,0,33.8,0c2.6,0,2.8-0.3,2.8-2.9c0-8.2,0-16.5-0.1-24.7C801.8,366.6,801.7,365.8,801.7,365z"/>
	<path d="M946,409.2c-0.5-0.2-1.1-0.4-1.5-0.7c-0.8-0.6-1.7-1.2-2.4-1.9c-4.8-4.7-9.6-9.4-14.5-14c-1.6-1.5-2-3.1-1.1-5.1
		c0.2-0.5,0.4-1,0.6-1.6c2-6,5.2-11.3,9.8-15.7c1.7-1.6,3.1-3.4,4.7-5.1c1.8-1.9,2.7-2,4.7-0.2c6,5.4,12,10.8,18,16.2
		c2.7,2.4,5.4,4.8,8,7.2c0.7,0.6,1.3,1.2,1.9,1.8c1.6,1.6,1.6,2.5,0,4.1c-2.7,2.7-5.6,5.1-9,6.7c-5.5,2.7-11.1,5.2-16.7,7.7
		C947.8,408.8,946.9,408.9,946,409.2z M974.7,391.9c-0.9-1-1.6-1.7-2.4-2.4c-2.4-2.2-4.9-4.4-7.3-6.5c-6.4-5.7-12.7-11.4-19.1-17.1
		c-1.9-1.7-2.2-1.7-3.9,0.2c-2,2.1-3.8,4.4-5.9,6.3c-4.6,4.4-6.8,10.2-9,15.9c-0.5,1.3-0.3,2.3,0.7,3.2c5.2,5,10.3,10,15.5,15.1
		c1.5,1.5,3.2,1.8,5.2,0.9c5.1-2.5,10.3-4.7,15.4-7.2c3.4-1.6,6.3-3.8,9-6.4C973.5,393.3,974,392.7,974.7,391.9z"/>
	<path d="M718,557.2c-0.6-0.5-1.1-0.8-1.5-1.2c-10.3-9.1-20.5-18.2-30.8-27.4c-3.3-2.9-3.1-3.6,0.9-5.2c5.8-2.4,11.6-4.8,17.4-7.3
		c2.7-1.1,5.1-1.1,7.3,1c4.5,4.2,9,8.3,13.4,12.6c3.8,3.7,3.9,4.7,1.7,9.4c-2.4,5.2-4.8,10.4-7.2,15.6
		C718.9,555.6,718.5,556.2,718,557.2z M717.6,555.7c0.4-0.7,0.7-1.3,1-1.8c1.6-3.5,3.2-7,4.8-10.4c0.9-2,1.8-4.1,2.8-6.1
		c1.1-2.3,0.7-4.1-1.1-5.8c-0.3-0.3-0.6-0.6-0.8-0.8c-4.5-4.3-9.1-8.5-13.6-12.8c-1.9-1.8-3.9-1.9-6.2-0.9
		c-6.1,2.6-12.2,5.1-18.3,7.6c-0.6,0.3-1.2,0.6-2.2,1.1C695.1,536.2,706.5,545.7,717.6,555.7z"/>
	<path d="M973,526.6c-3.8,3.3-7.3,6.2-10.8,9.3c-6.4,5.7-12.8,11.5-19.3,17.3c-1.1,1-2.2,2.1-3.5,3c-1.4,1-2.5,0.8-3.4-0.7
		c-0.3-0.4-0.4-0.9-0.6-1.3c-2.6-5.9-5.1-11.7-7.7-17.6c-1.2-2.9-1.1-3.5,1.2-5.6c5.1-4.7,10.2-9.5,15.3-14.2c2.2-2,2.9-2.2,5.5-1
		c6.4,2.8,12.7,5.6,19,8.5C970.2,524.9,971.5,525.8,973,526.6z M971.5,526.8c-1.3-0.7-2.2-1.3-3.1-1.7c-6.3-2.8-12.6-5.6-18.8-8.3
		c-2.4-1.1-2.7-1-4.6,0.8c-5.1,4.7-10.2,9.5-15.3,14.2c-1.9,1.8-2,2.1-0.9,4.5c2.5,5.8,5,11.6,7.6,17.4c0.2,0.4,0.3,0.7,0.5,1.1
		c0.7,1.2,1.2,1.3,2.3,0.5c1-0.7,1.8-1.5,2.7-2.3c9.4-8.3,18.8-16.7,28.2-25C970.3,527.6,970.8,527.3,971.5,526.8z"/>
	<path d="M894.4,364.6c1.1,0,1.9,0,2.7,0c10.5,0,21.1,0,31.6,0c1.5,0,3-0.1,3.7,1.6c0.8,1.8,0.6,3.6-0.2,5.3
		c-0.1,0.3-0.6,0.7-0.9,0.7c-1.7,0.3-2.2,1.6-2.8,3c-2.4,5.8-4.8,11.7-7.2,17.5c-1.2,2.9-1.7,3.2-4.8,3.2c-5.4,0-10.9,0-16.3,0
		c-0.6,0-1.1,0-1.7,0c-3.1-0.3-4.5-1.7-4.5-4.7c0-8.1,0-16.1,0-24.2C894.1,366.3,894.3,365.6,894.4,364.6z M895.4,365.6
		c-0.1,0.6-0.2,0.8-0.2,1.1c0,8.2,0,16.5,0,24.7c0,2.3,1,3.3,3.3,3.6c0.7,0.1,1.4,0.1,2.2,0.1c5.1,0,10.2,0,15.3,0
		c3.6,0,3.6,0,4.9-3.2c2.3-5.7,4.6-11.4,7-17.1c0.6-1.4,1.2-2.8,2.9-3.3c0.3-0.1,0.7-0.4,0.9-0.7c1.5-2.5,0-5.1-2.8-5.1
		c-10.3,0-20.6-0.1-30.9-0.1C897.1,365.6,896.3,365.6,895.4,365.6z"/>
	<path d="M758.1,364.8c0.1,0.8,0.1,1.5,0.1,2.2c0,7.8,0,15.7,0,23.5c0,4.6-0.8,5.4-5.5,5.4c-4.9,0-9.7,0-14.6,0
		c-3.5,0-4.9-0.9-6.2-4.2c-2.3-5.6-4.6-11.2-6.9-16.9c-0.4-1-0.9-1.8-1.9-2.3c-1.1-0.5-1.6-1.5-1.6-2.7c0-1,0-1.9-0.1-2.9
		c-0.1-1.4,0.4-2.1,1.8-2.3c0.5-0.1,1-0.1,1.4-0.1c10.5,0,20.9,0,31.4,0C756.7,364.6,757.3,364.7,758.1,364.8z M757.1,365.6
		c-1,0-2,0-2.9,0c-9.3,0-18.5,0-27.8,0c-4.2,0-4.6,0.5-3.8,4.5c0.1,0.6,0.6,1.5,1.1,1.7c1.4,0.5,1.8,1.6,2.3,2.8
		c2.3,5.6,4.6,11.2,6.8,16.9c0.9,2.3,2.4,3.5,4.8,3.5c5.1,0,10.2,0.1,15.3,0c3.7-0.1,4.1-0.5,4.2-4.2c0-7.8,0-15.7,0-23.5
		C757.2,366.8,757.2,366.3,757.1,365.6z"/>
	<path class="st0" d="M827.8,441.1c26.4,0,52.8,0,79.2,0c3.7,0,3.8,0.1,3.8,3.7c0,17.9,0,35.8,0,53.7c0,0.3,0,0.6,0,1
		c-0.1,2.3-0.4,2.6-2.7,2.6c-0.6,0-1.1,0-1.7,0c-28.5,0-56.9,0-85.4,0c-23.9,0-47.8-0.1-71.7-0.1c-4.4,0-4.7-0.2-4.7-4.6
		c0-17.8,0-35.5,0-53.3c0-0.2,0-0.3,0-0.5c0.1-2.5,0.2-2.7,2.8-2.7c15.8,0,31.5,0,47.3,0C805.7,441.2,816.8,441.2,827.8,441.1
		C827.8,441.2,827.8,441.1,827.8,441.1z"/>
	<path class="st0" d="M936.9,324.2c0,10.2,0,20.3,0,30.5c0,3.6-0.3,3.8-3.8,3.8c-10.2,0-20.5,0-30.7,0c-0.6,0-1.3,0-1.9,0
		c-3.3,0-3.5-0.2-3.5-3.6c0-20.6,0-41.3,0-61.9c0-0.6,0-1.1,0-1.7c0.1-0.9,0.6-1.5,1.5-1.5c0.4,0,0.8,0,1.2,0
		c11.4,0,22.7,0,34.1,0.1c0.3,0,0.6,0,1,0c1.8,0.1,2.1,0.4,2.2,2.1c0.1,0.8,0,1.6,0,2.4C936.9,304.4,936.9,314.3,936.9,324.2z"/>
	<path class="st0" d="M939,323.8c0-9.7,0-19.4,0-29c0-0.6,0-1.1,0-1.7c0-3,0.2-3.2,3.1-3.2c6.5,0,13,0,19.4,0c3,0,5.9-0.1,8.9,0
		c2.1,0,2.3,0.2,2.6,2.3c0.2,1.4,0.3,2.9,0.3,4.3c0,18.1,0,36.2,0,54.2c0,1.8-0.1,3.7-0.2,5.5c-0.1,1.3-0.7,1.9-2,1.9
		c-0.5,0-1,0-1.4,0c-8.7,0-17.4,0-26.2,0c-3.9,0-4.4-0.5-4.4-4.4C939.1,343.8,939.1,333.8,939,323.8
		C939.1,323.8,939.1,323.8,939,323.8z"/>
	<path class="st0" d="M779.8,425.6c4.5,0,8.8-0.2,13.1-0.1c4.6,0.1,5.1-0.3,5.1-4.9c0-3.8,0-7.5,0-11.3c0-2.5,0.3-2.8,2.7-2.8
		c6.9,0,13.8,0,20.6,0c11.2,0,22.4,0,33.6,0c0.8,0,1.6,0,2.5,0c0.1,0.8,0.3,1.5,0.3,2.1c0.1,4.3,0.2,8.6,0.3,13
		c0.1,3.1,0.7,3.9,3.8,4c3.2,0.1,6.4,0.1,9.6,0.1c0.7,0,1.4,0,2.2,0c1.4,0.1,2.1,0.7,2,2.1c0,2.5-0.2,4.9-0.3,7.7c-1,0-1.9,0-2.8,0
		c-28.9,0-57.8,0-86.6,0c-1.4,0-2.7,0-4.1-0.1c-1.7-0.2-1.9-0.6-1.9-2.4C779.8,430.7,779.8,428.3,779.8,425.6z"/>
	<path class="st0" d="M850.3,323.7c0-10.1,0-20.2,0-30.2c0-0.7,0-1.4,0-2.2c0.1-0.9,0.6-1.5,1.5-1.5c0.6,0,1.1,0,1.7,0
		c11.8,0,23.7,0,35.5,0.1c2.9,0,3.8,0.9,3.9,3.9c0,1.3-0.1,2.6-0.1,3.8c0,19,0,37.9,0,56.9c0,3.7-0.1,3.8-3.7,3.8
		c-11.7,0-23.4,0-35,0c-0.2,0-0.3,0-0.5,0c-2.9,0-3.3-0.3-3.3-3.4C850.3,344.5,850.4,334.1,850.3,323.7
		C850.4,323.7,850.3,323.7,850.3,323.7z"/>
	<path class="st0" d="M978.4,537.9c15.3,15.4,30.5,30.8,45.9,46.3c-0.9,1-1.6,1.9-2.3,2.7c-7.4,7.4-14.8,14.8-22.2,22.2
		c-2,2-2.3,2-4.3,0.1c-11.5-11.5-22.9-23-34.3-34.5c-2.5-2.5-5-5-7.4-7.5c-2.4-2.4-2.4-2.4-0.1-4.7c7.9-7.8,15.7-15.7,23.6-23.5
		C977.6,538.6,978,538.3,978.4,537.9z"/>
	<path class="st0" d="M759,324.1c0,10.2,0,20.3,0,30.5c0,0.6,0,1.3,0,1.9c-0.1,1.7-0.5,2.1-2.3,2.1c-2.7,0-5.4,0-8.2,0
		c-8.2,0-16.5,0-24.7,0c-1.2,0-2.4-0.1-3.6-0.3c-1.1-0.1-1.7-0.8-1.8-1.9c-0.1-0.8-0.1-1.6-0.1-2.4c0-20.1,0.1-40.3,0.1-60.4
		c0-3.6,0.3-3.8,3.8-3.8c11.1,0,22.2,0,33.3,0c3.3,0,3.4,0.1,3.4,3.3C759,303.4,759,313.7,759,324.1z"/>
	<path class="st0" d="M847.5,327.4c-0.1,7.6-0.3,18.1-0.5,28.7c0,2.2-0.3,2.5-2.6,2.5c-11.8,0-23.5,0-35.3,0c-2.8,0-3.2-0.5-3.2-3.5
		c0-12.4,0-24.8,0-37.2c0-7.9,0-15.8,0-23.7c0-0.6,0-1.3,0-1.9c0.1-2,0.4-2.4,2.4-2.4c4.1,0,8.2,0,12.2,0c7.4,0,14.9,0,22.3,0
		c0.5,0,1,0,1.4,0c1.9,0.1,2.5,0.6,2.6,2.7c0.1,2.2,0,4.3,0.1,6.5C847.2,307.5,847.3,315.9,847.5,327.4z"/>
	<path class="st0" d="M801.9,358.1c-1.1,0.1-1.8,0.2-2.5,0.2c-11,0-22.1,0-33.1,0c-3.8,0-4-0.2-4.1-4.1c-0.1-3.4-0.1-6.7-0.1-10.1
		c0-16.8,0-33.6,0-50.3c0-4.1,0.3-4.3,4.4-4.3c10.3,0.1,20.6,0.1,30.9,0.1c4.1,0,4.5,0.4,4.5,4.5c0,20.2,0,40.4,0,60.7
		C801.9,355.8,801.9,356.8,801.9,358.1z"/>
	<path class="st0" d="M606.5,400.9c1.6-0.1,3.2-0.4,4.8-0.4c19.6,0,39.2,0,58.8,0c4,0,4.2,0.1,4.2,4.1c0.1,10.5,0.1,20.9,0.2,31.4
		c0,0.3,0,0.6,0,1c0,3.1-0.2,3.2-3.3,3.2c-18.3,0-36.6,0.1-54.9,0.1c-2.3,0-4.6,0-7-0.1c-2.7-0.1-3.4-0.8-3.4-3.5
		c0-7.4,0-14.7,0.1-22.1c0-4.1,0.2-8.1,0.3-12.2C606.2,401.9,606.4,401.5,606.5,400.9z"/>
	<path class="st0" d="M893.3,633.6c-2.1,0.1-3.8,0.4-5.6,0.4c-10,0-20,0-30,0c-1.2,0-2.4-0.1-3.6-0.3c-0.9-0.1-1.4-0.7-1.5-1.6
		c-0.1-1-0.2-1.9-0.2-2.9c0-19.4,0-38.9,0-58.3c0-0.9,0.1-1.9,0.2-3c1-0.1,1.9-0.1,2.7-0.1c11.5,0,23,0,34.5,0c3.6,0,3.6,0,3.6,3.6
		c0,19.4,0,38.9,0,58.3C893.5,630.9,893.4,632.1,893.3,633.6z"/>
	<path class="st0" d="M606.3,443.3c1.6-0.1,3-0.3,4.4-0.3c13.3,0,26.7,0,40,0c6.6,0,13.1,0,19.7,0c0.7,0,1.4,0,2.2,0.1
		c0.9,0.1,1.5,0.6,1.6,1.5c0.1,0.9,0.2,1.7,0.2,2.6c0,9.2-0.1,18.4-0.1,27.6c0,1.5,0.1,3,0.1,4.6c0,2.4-0.3,2.6-2.6,2.7
		c-3.2,0-6.4,0-9.6,0c-17,0-34,0-51.1,0c-1,0-2.1,0-3.1-0.1c-1.5-0.2-1.9-0.7-2.1-2.1c0-0.3-0.1-0.6-0.1-1
		c0.1-10.4,0.1-20.8,0.2-31.2C606.1,446.3,606.2,445,606.3,443.3z"/>
	<path class="st0" d="M1015.7,400.8c9.8,0,19.5,0,29.3,0c0.6,0,1.1,0,1.7,0c2.4,0.1,2.9,0.5,3.1,2.9c0.1,0.9,0.1,1.8,0.1,2.6
		c0,10,0,20,0,30c0,4-0.2,4.2-4.2,4.2c-19.1,0-38.2,0-57.4,0c-1.4,0-2.7-0.2-4.1-0.3c-1.3-0.1-2-0.9-2.2-2.2
		c-0.1-0.8-0.2-1.6-0.2-2.4c0-10.6,0-21.1,0-31.7c0-0.4,0-0.8,0-1.2c0.1-1.4,0.5-1.8,1.9-1.9c0.6,0,1.3,0,1.9,0
		C995.7,400.8,1005.7,400.8,1015.7,400.8z"/>
	<path class="st0" d="M762.5,568.3c1.1-0.1,2.1-0.2,3-0.2c11.5,0,23,0,34.5,0c0.2,0,0.3,0,0.5,0c2.7,0.1,2.9,0.3,2.9,2.9
		c0,3.6-0.1,7.2-0.1,10.8c0,16.1,0,32.3,0,48.4c0,3.5,0,3.5-3.4,3.5c-10.9,0.1-21.9,0.3-32.8,0.4c-4.4,0-4.8-0.3-4.8-4.8
		c0-19.3,0-38.7,0-58C762.3,570.3,762.4,569.4,762.5,568.3z"/>
	<path class="st0" d="M982.3,443.5c1.3-0.2,2.3-0.4,3.3-0.4c20.8,0,41.6,0,62.4,0c0.2,0,0.5,0.1,0.9,0.1c0.7,2.1,0.9,4.4,0.9,6.7
		c0.1,9.5,0,19,0,28.5c0,0.9-0.2,1.9-0.3,2.9c-0.9,0.1-1.6,0.2-2.3,0.2c-20.5,0.1-40.9,0.3-61.4,0.4c-0.6,0-1.1,0-1.7,0
		c-1.1-0.1-1.7-0.7-1.8-1.9c0-0.4,0-0.8,0-1.2c-0.1-10.2-0.2-20.3-0.2-30.5C982,446.8,982.2,445.3,982.3,443.5z"/>
	<path class="st0" d="M631.4,583.7c15.3-15.2,30.5-30.3,45.8-45.5c2.3,2.3,4.6,4.4,6.8,6.6c6.1,6,12.1,12.1,18.1,18.2
		c2,2,2,2.9-0.1,4.9c-7.7,7.6-15.4,15.2-23,22.7c-6,6-12,11.9-18.1,17.9c-0.7,0.7-1.5,1.4-2.3,2
		C656.8,609.4,636.3,589.2,631.4,583.7z"/>
	<path class="st0" d="M681.5,289.9c4.5-0.6,31.9-0.4,33.8,0.3c0,0.9,0.1,1.8,0.1,2.7c0,20.7,0,41.4-0.1,62.2c0,0.5,0,1,0,1.4
		c0,1.2-0.7,1.8-1.8,1.8c-0.6,0-1.1,0.1-1.7,0.1c-8.7,0-17.4,0-26.2,0c-4,0-4.2-0.3-4.2-4.2c0-20,0-40,0-60
		C681.5,292.8,681.5,291.4,681.5,289.9z"/>
	<path class="st0" d="M606.3,364.3c1.2,0,2.1,0,3.1,0c19.3,0,38.5,0,57.8,0c1.5,0,3-0.1,4.6-0.1c2.5,0,2.8,0.3,2.8,2.7
		c0,2.9,0,5.8,0,8.6c-0.1,6.5-0.2,12.9-0.3,19.4c0,2.6-0.6,3.1-3.1,3.1c-19.7,0-39.3,0-59,0c-1.1,0-2.2,0-3.3-0.1
		c-1.9-0.3-2.6-1-2.8-3c-0.1-0.9-0.1-1.8-0.1-2.6c0-7.5,0-15,0-22.5C605.9,368,606.2,366.2,606.3,364.3z"/>
	<path class="st0" d="M982.3,364.3c0.9,0,1.7,0,2.5,0c20,0,40,0,60,0c4.7,0,5.1,0.3,5.1,5c0,8.2,0,16.3,0,24.5c0,0.5,0,1,0,1.4
		c-0.1,2.3-0.4,2.6-2.7,2.6c-4.5,0-9,0-13.4,0c-15.7,0-31.3,0-47,0c-4.2,0-4.8-0.6-4.8-4.9c0-7.8,0-15.5,0-23.3
		C981.9,368,982.2,366.3,982.3,364.3z"/>
	<path class="st0" d="M897.8,576.2c1.2-0.1,2-0.1,2.9-0.1c10.9,0,21.8,0,32.6,0c0.3,0,0.6,0,1,0c2.2,0.1,2.5,0.4,2.5,2.6
		c0,17.6,0.1,35.2,0.1,52.8c0,2.4-0.3,2.7-2.8,2.7c-10.9,0-21.8,0-32.6,0c-0.1,0-0.2,0-0.2,0c-3.2-0.1-3.5-0.3-3.5-3.6
		c0-12.2,0-24.5,0-36.7c0-4.8,0-9.6,0-14.4C897.6,578.4,897.7,577.4,897.8,576.2z"/>
	<path class="st0" d="M757.3,605.2c0,8.2,0,16.5,0,24.7c0,0.6,0,1.1,0,1.7c-0.1,2.1-0.4,2.5-2.5,2.6c-2.3,0-4.6,0-7,0
		c-8.5,0-16.9,0-25.4,0c-0.2,0-0.5,0-0.7,0c-3.4-0.1-3.9-0.5-3.9-3.9c0-17,0-34,0-51.1c0-0.4,0-0.8,0-1.2c0.2-1.5,0.4-1.8,1.9-1.8
		c1.4-0.1,2.7,0,4.1,0c9.6,0,19.2,0,28.8,0c0.6,0,1.3,0,1.9,0c2.2,0.1,2.7,0.6,2.7,2.8c0.1,6.2,0.1,12.3,0.1,18.5
		C757.4,599.9,757.3,602.5,757.3,605.2z"/>
	<path class="st0" d="M848.3,605c0,8.1,0,16.1,0,24.2c0,0.5,0,1,0,1.4c-0.1,2.8-0.5,3.3-3.4,3.3c-1.6,0-3.2-0.1-4.8-0.1
		c-8.6,0-17.3,0.1-25.9,0.1c-1.1,0-2.2-0.1-3.3-0.3c-1.6-0.3-2.2-0.9-2.3-2.6c-0.1-1.2-0.1-2.4-0.1-3.6c0-15.6,0-31.2,0-46.7
		c0-5.4,0-4.8,4.8-4.8c10.1,0,20.3,0,30.4,0c0.2,0,0.5,0,0.7,0c3.4,0,3.9,0.5,3.9,3.9C848.3,588.2,848.3,596.6,848.3,605z"/>
	<path class="st0" d="M979.8,531.3c22.3,10.1,44.6,20.2,67.2,30.5c-0.9,1.2-1.3,2.1-2,2.7c-5,4.8-10,9.7-15.1,14.4
		c-1.6,1.6-2.3,1.5-4-0.2c-6.2-6.2-12.4-12.5-18.6-18.7c-8.4-8.5-16.7-17-25.1-25.4c-0.9-0.9-1.8-1.9-2.7-2.8
		C979.6,531.6,979.7,531.4,979.8,531.3z"/>
	<path class="st0" d="M994,614.6c-0.7,0.8-1.2,1.4-1.8,1.9c-5.7,5-11.4,10-17.1,15c-1.5,1.3-2.1,1.1-2.9-0.9
		c-2.8-6.7-5.5-13.5-8.3-20.2c-5.7-14-11.5-27.9-17.2-41.9c-0.3-0.8-0.6-1.6-0.7-2.5C962.1,582.1,978.3,597.9,994,614.6z"/>
	<path class="st0" d="M674,527.7c-1.1,0.7-1.9,1.3-2.8,1.7c-9.5,4.2-19,8.4-28.5,12.7c-11,5-22,10.3-33,15.4c-0.9,0.4-1.9,0.6-2.8,1
		c-0.9-2.9-1.1-27.7-0.3-30.9C608.7,527,671.7,527.1,674,527.7z"/>
	<path class="st0" d="M981.4,527.1c1.3-0.1,2.1-0.2,2.9-0.2c20.6,0,41.1,0,61.7,0c0.4,0,0.8,0,1.2,0c1.7,0.1,2.2,0.6,2.3,2.4
		c0,0.2,0,0.5,0,0.7c0,8.7,0,17.4,0,26.2c0,0.6-0.1,1.2-0.1,1.8C1047.5,557.9,985,529.5,981.4,527.1z"/>
	<path class="st0" d="M975.9,480.6c-16.2,0-32.5,0-49.1,0c0-0.9,0-1.7,0-2.5c0-10.9,0.1-21.8,0.1-32.6c0-0.5,0-1,0-1.4
		c0-1,0.5-1.5,1.5-1.5c0.5,0,1,0,1.4,0c14.5,0,29,0,43.4,0c0.8,0,1.6,0,2.3,0C976.3,444.3,976.5,476.7,975.9,480.6z"/>
	<path class="st0" d="M675.5,532.2c-1,1.2-1.9,2.4-2.9,3.4c-14,14.2-27.9,28.3-41.9,42.5c-0.2,0.2-0.3,0.3-0.5,0.5
		c-1.8,1.6-2.4,1.6-4.2-0.1c-1.7-1.7-3.4-3.3-5.1-5c-3.5-3.4-7-6.8-10.4-10.2c-0.4-0.4-0.7-0.8-1.1-1.4c22.1-10.1,44-20,65.9-30
		C675.3,532,675.4,532.1,675.5,532.2z"/>
	<path class="st0" d="M728.3,481.1c-16.2,0-32.2,0-48.3,0c0-1,0-1.8,0-2.6c0-11,0-22.1,0-33.1c0-0.3,0-0.6,0-1
		c0.1-2.1,0.3-2.3,2.4-2.3c5.8,0,11.7,0.1,17.5,0.1c7.9,0.1,15.8,0.2,23.7,0.3c4.4,0,4.8,0.4,4.8,4.8c0,10.6,0,21.1,0,31.7
		C728.4,479.7,728.3,480.3,728.3,481.1z"/>
	<path class="st0" d="M710.2,566.5c-8.4,20.7-16.9,41.3-25.3,62c-0.5,1.3-1.3,2.5-2,4c-1.8-1.4-3.4-2.6-4.8-3.9
		c-4.8-4.2-9.6-8.4-14.4-12.6c-2.1-1.8-2.1-2.2-0.1-4.2c13.7-13.6,27.3-27.1,41-40.7c1.7-1.7,3.4-3.3,5.2-5
		C709.8,566.3,710,566.4,710.2,566.5z"/>
	<path class="st0" d="M847.9,538c0,6.8,0,13.6,0,20.4c0,0.6,0,1.1,0,1.7c0,1-0.6,1.3-1.5,1.3c-11.7-0.1-23.3-0.2-35-0.3
		c-0.3,0-0.6,0-1,0c-1.9-0.2-2.4-0.7-2.4-2.6c0-3.4,0.1-6.9,0.1-10.3c0.1-10,0.2-20,0.3-30c0.1-5.3,0-4.7,4.8-4.7
		c10.2,0,20.5,0,30.7,0c0.3,0,0.6,0,1,0c2.7,0.1,3,0.4,3,3.1C847.9,523.8,847.9,530.9,847.9,538z"/>
	<path class="st0" d="M762.9,537.4c0-6.9,0-13.7,0-20.6c0-2.8,0.4-3.2,3.2-3.2c11.3,0,22.7,0,34,0c0.5,0,1,0,1.4,0.1
		c1.1,0,1.6,0.7,1.6,1.7c0,0.6,0,1.3,0,1.9c0,5.4,0,10.9,0,16.3c0,7.3,0.2,14.5,0.2,21.8c0,1.3-0.1,2.6-0.2,3.8
		c0,1.1-0.6,1.6-1.6,1.7c-0.8,0.1-1.6,0.2-2.4,0.2c-10.9,0-21.7,0-32.6,0c-0.4,0-0.8,0-1.2,0c-1.6-0.2-2-0.6-2.1-2.3
		c-0.2-5.3-0.4-10.5-0.5-15.8C762.9,541.1,762.9,539.3,762.9,537.4z"/>
	<path class="st0" d="M606.2,485.4c0.9,0,1.8,0,2.7,0c14.2,0,28.5,0,42.7,0.1c6.4,0,12.8,0.1,19.2,0.1c0.5,0,1,0,1.4,0
		c1.8,0.2,2.1,0.3,2.2,2.2c0.1,4.6,0.1,9.3,0.1,13.9c0,1.5-0.4,1.8-1.9,1.8c-1,0-2.1,0-3.1,0c-19.7,0-39.5,0-59.2,0
		c-0.6,0-1.3,0-1.9,0c-1.8-0.1-2.2-0.5-2.2-2.3c0-4.8,0-9.6,0-14.4C606,486.4,606.1,486,606.2,485.4z"/>
	<path class="st0" d="M852.6,537.4c0-6.7,0-13.4,0-20.1c0-0.6,0-1.1,0-1.7c0.1-1.6,0.4-1.9,2.1-1.9c2.4,0,4.8,0,7.2,0
		c8.6,0,17.3,0,25.9,0c0.6,0,1.1,0,1.7,0c1.8,0.1,2.2,0.5,2.4,2.3c0.1,0.8,0.1,1.6,0.1,2.4c0,12.2-0.1,24.5-0.1,36.7
		c0,1.4,0.1,2.7,0,4.1c-0.1,1.7-0.6,2.3-2.4,2.4c-1.1,0.1-2.2,0-3.4,0c-10,0-20,0-30,0c-0.5,0-1,0-1.4,0c-2-0.1-2.4-0.4-2.4-2.5
		c0-4.9,0.1-9.8,0.1-14.6C852.5,542,852.5,539.7,852.6,537.4C852.5,537.4,852.5,537.4,852.6,537.4z"/>
	<path class="st0" d="M1049.9,503.3c-1,0.1-1.8,0.1-2.6,0.1c-20.7,0-41.4,0-62.1,0c-0.5,0-1,0-1.4,0c-1.5-0.1-1.8-0.4-1.8-1.9
		c0.1-4.8,0.2-9.6,0.3-14.4c0-1.6,0.4-1.9,2-2c2.1-0.1,4.2,0,6.2,0c17.8,0,35.6,0.1,53.5,0.1c0.9,0,1.8,0,2.6,0
		c2.4,0.2,3.2,0.9,3.2,3.3c0.1,2.8,0,5.6,0,8.4C1049.9,499.1,1049.9,501.1,1049.9,503.3z"/>
	<path class="st0" d="M605.9,506.6c1.2,0,2.1,0,3,0c14.9,0,29.7,0,44.6,0c5.6,0,11.2-0.1,16.8-0.1c0.7,0,1.4,0,2.1,0.1
		c1.1,0.2,1.7,0.8,1.7,2c0,5,0,10.1,0,15.4c-1,0-1.7,0-2.5,0c-19.9,0-39.8,0-59.7,0c-1.3,0-2.6-0.1-3.8-0.3c-1.3-0.1-2-0.9-2.2-2.2
		c0-0.2-0.1-0.3-0.1-0.5C605.9,516.3,605.9,511.6,605.9,506.6z"/>
	<path class="st0" d="M1015.7,506.1c9.8,0,19.7,0,29.5,0c4.2,0,4.7,0.5,4.7,4.7c0,3.7,0,7.4-0.1,11c-0.1,2.2-0.8,2.8-3,2.8
		c-20.1,0-40.3,0-60.4-0.1c-0.6,0-1.3,0-1.9-0.2c-1.8-0.4-2.5-1.1-2.5-2.9c-0.1-4.3-0.1-8.6,0-12.9c0-1.6,0.5-2.1,2.2-2.3
		c0.8-0.1,1.6-0.1,2.4-0.1C996.2,506.1,1005.9,506.1,1015.7,506.1z"/>
	<path class="st0" d="M942,569.7c9,21.2,18,42.5,27.1,63.9c-0.7,0.1-1.2,0.3-1.7,0.3c-7.6,0-15.2,0-22.8,0c-0.6,0-1.1-0.1-1.7-0.2
		c-0.9-0.1-1.4-0.7-1.5-1.6c0-0.6-0.1-1.1-0.1-1.7c0-19.7,0-39.3,0-59c0-0.6,0.1-1.1,0.1-1.7C941.7,569.8,941.9,569.8,942,569.7z"/>
	<path class="st0" d="M714.1,569.6c0.1,0.9,0.3,1.8,0.3,2.7c0,17.1,0,34.2,0,51.3c0,2.6,0.1,5.1,0.1,7.7c0,2-0.5,2.6-2.5,2.6
		c-7.1,0-14.2-0.1-21.3-0.2c-1.3,0-2.6-0.5-4.2-0.8c9.1-21.3,18.2-42.3,27.2-63.3C713.8,569.6,713.9,569.6,714.1,569.6z"/>
	<path class="st0" d="M927.2,484.3c1-0.1,1.9-0.3,2.8-0.3c14.6,0,29.1,0,43.7,0c2.7,0,2.8,0.2,2.8,2.9c0,11.2,0,22.4,0,33.6
		c0,0.9-0.1,1.7-0.2,2.8c-0.7-0.2-1.3-0.3-1.7-0.5c-14.8-5.9-29.5-11.7-44.3-17.6c-3.3-1.3-3.4-1.6-3.3-5.2
		c0.1-4.2,0.1-8.5,0.1-12.7C927,486.3,927.1,485.4,927.2,484.3z"/>
	<path class="st0" d="M680,523.7c-0.1-1.2-0.2-2-0.2-2.9c0-11.2,0-22.4,0-33.6c0-2.8,0.5-3.2,3.2-3.2c13.3,0,26.7,0.1,40,0.1
		c5.7,0,4.8,0.4,4.8,4.9c0.1,4.1,0.1,8.1,0.2,12.2c0,2.4-0.4,3.1-2.6,4c-14.4,5.9-28.8,11.8-43.2,17.7
		C681.7,523.2,681.1,523.4,680,523.7z"/>
	<path class="st0" d="M927.1,438.5c-0.1-1.3-0.2-2.5-0.2-3.6c-0.1-3.7-0.1-7.4-0.1-11c0-3.5,0.2-3.9,3.4-5.2
		c11.6-4.7,23.2-9.4,34.9-14.1c1.3-0.5,2.4-1.1,3.2-2.3c0.8-1.2,5.2-2.4,6.4-1.7c0.6,0.3,1.2,1.1,1.3,1.8c0.3,1.4,0.4,2.9,0.4,4.3
		c0,9.6,0,19.2-0.1,28.8c0,1-0.1,2-0.2,3C974.1,439,930.1,439.1,927.1,438.5z"/>
	<path class="st0" d="M728.4,438.7c-1.1,0.1-1.8,0.2-2.6,0.2c-14.3,0-28.6,0-42.9,0c-0.3,0-0.6,0-1,0c-1.6-0.1-1.8-0.4-1.9-1.8
		c0-0.4,0-0.8,0-1.2c0-10.8,0-21.6,0-32.4c0-0.6-0.1-1.1,0.1-1.7c0.1-0.5,0.4-1.1,0.8-1.4c1.5-1.1,5.3-0.6,6.4,1
		c1.5,2.3,3.6,3.2,5.9,4.2c10.3,4.3,20.6,8.6,31,12.9c0.7,0.3,1.5,0.6,2.2,1c1.3,0.7,2.1,1.8,2.1,3.2
		C728.4,427.9,728.4,433.1,728.4,438.7z"/>
	<path class="st0" d="M760.1,560.7c-12.8,0-25.2,0-37.9,0c-0.1-3-0.8-5.9,1.2-8.7c1-1.5,1.6-3.3,2.3-5c4.5-10.1,9-20.1,13.5-30.2
		c1.5-3.3,1.9-3.6,5.7-3.5c4,0.1,8,0,12,0.1c2.6,0.1,3,0.5,3.2,3.1c0,0.7,0,1.4,0,2.2c0.1,13.1,0.2,26.2,0.3,39.3
		C760.2,558.9,760.1,559.6,760.1,560.7z"/>
	<path class="st0" d="M896,561.2c0-1.1,0-1.9,0-2.7c0-13.8,0-27.7,0-41.5c0-0.3,0-0.6,0-1c0.1-2.1,0.5-2.5,2.6-2.5
		c3.8,0,7.5,0,11.3,0c0.7,0,1.4,0,2.2-0.1c2-0.2,3.3,0.7,4.1,2.6c1.7,4.2,3.5,8.4,5.3,12.6c3.8,8.7,7.5,17.5,11.3,26.2
		c0.6,1.4,1,2.7,0.4,4.2c-0.6,1.6-1.4,2.2-3.3,2.2c-7.8,0-15.5,0-23.3,0C903.2,561.2,899.8,561.2,896,561.2z"/>
	<path class="st0" d="M892,394.9c-0.8,0-1.5,0.1-2.2,0.1c-11.8,0-23.7,0-35.5,0c-3.8,0-4.4-0.6-4.5-4.5c0-7.4,0-14.9,0-22.3
		c0-0.6,0-1.1,0-1.7c0.1-1,0.6-1.6,1.7-1.7c0.5,0,1,0,1.4,0c11.9,0,23.8,0,35.8,0c2.9,0,3.4,0.4,3.4,3.3c0.1,8.7,0.1,17.4,0.1,26.1
		C892.3,394.3,892.2,394.5,892,394.9z"/>
	<path class="st0" d="M827.1,395c-5.7,0-11.4,0-17,0c-0.7,0-1.4,0-2.2-0.1c-1.1-0.2-1.7-0.8-1.8-1.9c0-0.6,0-1.1,0-1.7
		c0-7.7,0-15.3,0-23c0-0.4,0-0.8,0-1.2c0.1-1.6,0.6-2.1,2.2-2.2c0.5,0,1,0,1.4,0c11,0,22.1,0,33.1,0c4.1,0,4.5,0.5,4.5,4.5
		c0,7.6,0,15.2,0.1,22.8c0,2.6-0.2,2.8-2.9,2.8C838.7,395,832.9,395,827.1,395z"/>
	<path class="st0" d="M801.7,365c0,0.8,0.1,1.6,0.1,2.4c0,8.2,0,16.5,0.1,24.7c0,2.6-0.3,2.9-2.8,2.9c-11.3,0-22.5,0-33.8,0
		c-0.6,0-1.3,0-1.9-0.2c-1-0.2-1.5-0.8-1.7-1.8c-0.1-0.5-0.1-1-0.1-1.4c0-7.7,0-15.3,0-23c0-1.7,0.7-2.6,2.1-3.1
		c1.2-0.4,2.5-0.7,3.7-0.7c11.1-0.1,22.2,0,33.3,0C800.9,364.8,801.2,364.9,801.7,365z"/>
	<path class="st0" d="M974.7,391.9c-0.7,0.8-1.2,1.4-1.8,2c-2.7,2.6-5.6,4.8-9,6.4c-5.1,2.4-10.3,4.7-15.4,7.2c-2,1-3.6,0.7-5.2-0.9
		c-5.1-5-10.3-10.1-15.5-15.1c-1-1-1.2-2-0.7-3.2c2.2-5.8,4.4-11.5,9-15.9c2.1-2,3.9-4.2,5.9-6.3c1.7-1.8,2-1.9,3.9-0.2
		c6.4,5.7,12.7,11.4,19.1,17.1c2.4,2.2,4.9,4.3,7.3,6.5C973.1,390.1,973.8,390.9,974.7,391.9z"/>
	<path class="st0" d="M717.6,555.7c-11.1-10.1-22.5-19.6-33.6-30c1-0.5,1.6-0.9,2.2-1.1c6.1-2.6,12.2-5.1,18.3-7.6
		c2.3-1,4.3-0.8,6.2,0.9c4.5,4.3,9.1,8.5,13.6,12.8c0.3,0.3,0.6,0.6,0.8,0.8c1.8,1.7,2.2,3.6,1.1,5.8c-1,2-1.9,4-2.8,6.1
		c-1.6,3.5-3.2,7-4.8,10.4C718.4,554.5,718,555,717.6,555.7z"/>
	<path class="st0" d="M971.5,526.8c-0.7,0.5-1.2,0.8-1.6,1.2c-9.4,8.3-18.8,16.7-28.2,25c-0.9,0.8-1.8,1.6-2.7,2.3
		c-1.1,0.8-1.6,0.7-2.3-0.5c-0.2-0.3-0.3-0.7-0.5-1.1c-2.5-5.8-5-11.6-7.6-17.4c-1.1-2.5-1-2.8,0.9-4.5c5.1-4.7,10.2-9.5,15.3-14.2
		c2-1.8,2.2-1.9,4.6-0.8c6.3,2.8,12.6,5.5,18.8,8.3C969.3,525.6,970.2,526.1,971.5,526.8z"/>
	<path class="st0" d="M895.4,365.6c0.9,0,1.7,0,2.5,0c10.3,0,20.6,0,30.9,0.1c2.9,0,4.3,2.6,2.8,5.1c-0.2,0.3-0.6,0.6-0.9,0.7
		c-1.7,0.5-2.3,1.8-2.9,3.3c-2.3,5.7-4.6,11.4-7,17.1c-1.3,3.2-1.3,3.2-4.9,3.2c-5.1,0-10.2,0-15.3,0c-0.7,0-1.4,0-2.2-0.1
		c-2.3-0.3-3.3-1.3-3.3-3.6c0-8.2,0-16.5,0-24.7C895.1,366.4,895.2,366.2,895.4,365.6z"/>
	<path class="st0" d="M757.1,365.6c0.1,0.7,0.2,1.2,0.2,1.7c0,7.8,0,15.7,0,23.5c0,3.7-0.5,4.1-4.2,4.2c-5.1,0.1-10.2,0-15.3,0
		c-2.5,0-3.9-1.2-4.8-3.5c-2.2-5.6-4.6-11.2-6.8-16.9c-0.5-1.2-0.9-2.3-2.3-2.8c-0.5-0.2-1-1-1.1-1.7c-0.8-4-0.4-4.5,3.8-4.5
		c9.3,0,18.5,0,27.8,0C755.1,365.6,756,365.6,757.1,365.6z"/>
</g>
</svg>
