<?xml version="1.0" encoding="utf-8"?>
<!-- Generator: Adobe Illustrator 21.1.0, SVG Export Plug-In . SVG Version: 6.00 Build 0)  -->
<svg version="1.1" id="Layer_1" xmlns="http://www.w3.org/2000/svg" xmlns:xlink="http://www.w3.org/1999/xlink" x="0px" y="0px"
	 viewBox="0 0 1640 924" style="enable-background:new 0 0 1640 924;" xml:space="preserve">
<style type="text/css">
	.st0{fill:#575757;}
</style>
<path class="st0" d="M834,424c45.2,0,90.5,0,135.7,0c7.5,0,8.1,0.6,8.1,8.2c0,30.3,0.1,60.7,0.1,91c0,0.4,0,0.8,0,1.2
	c0,6.1-1,7.1-7.2,7.1c-34.4,0-68.9,0-103.3,0c-55.8,0-111.5-0.1-167.3-0.1c-8.6,0-9.6-1-9.6-9.7c0-30.3,0-60.7,0-91c0-0.7,0-1.4,0-2
	c0.2-3.5,1.2-4.6,4.8-4.7c6.6-0.1,13.1,0,19.7,0C754.7,424,794.4,424,834,424z"/>
<path class="st0" d="M1022.2,171.9c0,1.4,0,2.7,0,4.1c0,34.8,0,69.7-0.1,104.5c0,4-1.3,5.5-5.3,5.7c-2.9,0.2-5.7,0-8.6,0
	c-16.3,0-32.5,0.1-48.8,0.1c-8,0-8.7-0.7-8.7-8.6c0-25.1-0.1-50.3-0.1-75.4c0-9.8,0-19.7,0-29.5c0-1.1,0-2.2,0.1-3.3
	c0.3-2.5,1.4-3.6,4-3.8c2.3-0.2,4.6,0,7,0c18,0,36.1,0,54.1,0c2.9,0,5.5,0.2,6.8,4.1c1-4,3.8-4.2,6.6-4.1c13.8,0,27.6,0.1,41.4,0.1
	c2.7,0,5.5-0.1,8.2,0c3.8,0.1,4.8,0.9,5.3,4.8c0.3,2.4,0.5,4.9,0.5,7.3c0,31.4,0,62.9,0,94.3c0,3-0.1,6-0.4,9
	c-0.2,2.9-1.5,4.1-4.4,4.4c-1.2,0.1-2.5,0.1-3.7,0.1c-14.5,0-29,0-43.5,0c-0.5,0-1.1,0-1.6,0c-6.6-0.1-7.8-1.4-7.8-8
	c-0.1-34.7-0.3-69.4-0.5-104.1c0-0.5-0.1-1.1-0.1-1.6C1022.6,171.8,1022.4,171.8,1022.2,171.9z"/>
<path class="st0" d="M871.2,225.1c0-17.2,0-34.4,0-51.7c0-1.1,0-2.2,0-3.3c0.2-3.4,1.4-4.7,4.9-4.7c4.6-0.1,9.3,0.1,13.9,0.1
	c16.1,0,32.3,0,48.4,0c0.8,0,1.6,0,2.5,0c3.5,0.3,5.1,1.6,6,5c0.3,1.2,0.4,2.4,0.4,3.6c0,34.4,0,68.9,0,103.3c0,7.4-0.8,8.2-8.2,8.2
	c-19.8,0-39.6,0-59.5,0c-7.4,0-8.3-0.8-8.3-8.2C871.3,260.1,871.3,242.6,871.2,225.1C871.3,225.1,871.2,225.1,871.2,225.1z"/>
<path class="st0" d="M869.6,233.3c-0.2,11-0.4,28.8-0.7,46.7c-0.1,5.1-1.2,6.2-6.4,6.2c-19.8,0-39.6,0-59.4,0c-1.1,0-2.2,0-3.3-0.2
	c-2.7-0.5-3.8-1.5-4.2-4.3c-0.2-1.5-0.2-3-0.2-4.5c0-25.8,0-51.6,0-77.5c0-8.7,0-17.5,0-26.2c0-1.1,0-2.2,0.1-3.3
	c0.3-3.5,1.3-4.6,4.9-4.7c2.5-0.1,4.9,0,7.4,0c17.3,0,34.7,0,52-0.1c7.9,0,9,1,9.1,8.8C869,191.7,869.3,209,869.6,233.3z"/>
<path class="st0" d="M718.5,225.6c0,17.2,0,34.4,0,51.7c0,1.1,0,2.2,0,3.3c-0.2,4.3-1.5,5.6-5.7,5.7c-19.3,0-38.5,0.1-57.8,0
	c-8,0-9.2-1.4-9.2-9.4c0-34.2,0-68.3,0.1-102.5c0-8.1,0.8-8.9,8.9-8.9c18.7,0,37.4,0,56.2,0c1,0,1.9,0,2.9,0
	c3.3,0.2,4.4,1.3,4.7,4.5c0.1,1.2,0.1,2.5,0.1,3.7C718.5,190.9,718.5,208.2,718.5,225.6z"/>
<path class="st0" d="M947.8,756.1c-4.3,0.3-8,0.6-11.7,0.6c-16.5,0.1-33.1,0-49.6,0c-1,0-1.9,0-2.9,0c-7.7-0.1-9-1.4-9-9.2
	c0-33.6,0-67.2,0-100.9c0-1,0-1.9,0.1-2.9c0.3-2,1.4-3.2,3.5-3.3c1.2,0,2.5-0.1,3.7-0.1c19.4,0,38.8,0,58.2,0c1,0,1.9,0,2.9,0
	c3.9,0.2,5,1.3,5.1,5.3c0,0.7,0,1.4,0,2.1c0,33.5,0,67,0,100.5C948.2,750.9,948,753.3,947.8,756.1z"/>
<path class="st0" d="M791.7,226.3c0,17.6,0,35.3,0,52.9c0,6.1-0.5,6.5-6.5,6.5c-18.7,0-37.5,0-56.2,0c-7.2,0-8.1-0.7-8.4-7.8
	c-0.3-5.7-0.2-11.5-0.2-17.2c0-29.1,0-58.2,0-87.4c0-7.5,1.3-8.6,9-8.5c17.6,0.2,35.3,0.2,52.9,0.2c8.3,0,9.5,1.2,9.5,9.5
	C791.7,191.9,791.7,209.1,791.7,226.3z"/>
<path class="st0" d="M454.4,355.3c3.5-0.2,6.7-0.7,10-0.7c33.6,0,67.2,0,100.8,0c0.4,0,0.8,0,1.2,0c6,0.2,7.1,1.3,7.1,7.3
	c0.1,18.6,0.2,37.1,0.2,55.7c0,0.5,0,1.1,0,1.6c-0.1,5.6-0.9,6.5-6.4,6.5c-13.1,0-26.2,0-39.3,0c-17.2,0-34.4,0.2-51.6,0.2
	c-4.9,0-9.8-0.1-14.7-0.2c-1.1,0-2.2-0.1-3.3-0.3c-3.2-0.7-4.7-2.3-4.9-5.6c-0.2-3.1-0.1-6.3-0.1-9.4c0.1-16,0.2-32,0.4-47.9
	C453.8,360.2,454.2,357.9,454.4,355.3z"/>
<path class="st0" d="M1155,355.1c17.1,0,34.2,0,51.3,0c1.2,0,2.5-0.1,3.7,0.1c3.2,0.3,4.7,1.6,5.1,4.8c0.3,2.3,0.5,4.6,0.5,6.9
	c0,16.8,0,33.6,0,50.4c0,1.5,0,3-0.3,4.5c-0.5,3.2-1.6,4.2-4.9,4.4c-0.9,0.1-1.9,0-2.9,0c-33.1,0-66.1,0-99.2,0
	c-2.3,0-4.6-0.3-6.9-0.6c-2.8-0.4-4.5-1.9-4.9-4.7c-0.2-1.2-0.4-2.4-0.4-3.6c-0.1-18.7-0.1-37.4-0.1-56.2c0-0.7,0-1.4,0.1-2
	c0.4-2.4,1.5-3.6,4-3.9c1.5-0.1,3-0.1,4.5-0.1C1121.4,355.1,1138.2,355.1,1155,355.1z"/>
<path class="st0" d="M720.9,698c0-16.8,0-33.6,0-50.4c0-6.2,0.5-6.7,6.8-6.7c19.8,0,39.6,0,59.4,0c0.7,0,1.4,0,2,0
	c4,0.3,5.1,1.2,5.1,5.3c0.1,6.3,0,12.6,0,18.8c0,28,0,56,0,84c0,6.7-0.6,7.2-7.3,7.2c-18.8,0.2-37.7,0.4-56.5,0.6
	c-1.6,0-3.3,0-4.9-0.3c-3-0.5-4.2-1.9-4.5-5c-0.2-1.8-0.2-3.5-0.2-5.3C720.9,730.2,720.9,714.1,720.9,698z"/>
<path class="st0" d="M454.4,428c3-0.3,5.8-0.7,8.7-0.7c24.1-0.1,48.1,0,72.2,0c10.3,0,20.5-0.1,30.8-0.1c1.2,0,2.5,0,3.7,0.2
	c2.1,0.3,3.5,1.6,3.8,3.7c0.2,1.6,0.3,3.3,0.3,4.9c0,15.7-0.1,31.4-0.1,47.1c0,2.9,0.2,5.7,0.1,8.6c-0.1,4.3-1.2,5.3-5.4,5.3
	c-5.6,0-11.2,0-16.8,0c-29.1,0-58.2,0-87.3,0c-1.8,0-3.6,0.1-5.3-0.1c-3.7-0.3-5.1-1.8-5.4-5.4c0-0.4,0-0.8,0-1.2
	c0.1-18.3,0.2-36.6,0.3-54.9C453.8,433,454.2,430.8,454.4,428z"/>
<path class="st0" d="M1097.1,428.2c2.5-0.3,4.8-0.9,7.1-0.9c35.8-0.1,71.6,0,107.4,0c0.7,0,1.3,0.1,2.6,0.2
	c0.5,4.7,1.4,9.4,1.4,14.1c0.2,15.2,0.1,30.3,0.1,45.5c0,1.8-0.1,3.6-0.3,5.3c-0.3,2.8-1.1,3.6-3.9,3.7c-2.9,0.1-5.7,0.1-8.6,0.1
	c-21.3,0.2-42.6,0.4-63.9,0.6c-11.3,0.1-22.7,0.1-34,0.1c-1,0-1.9,0-2.9,0c-3.6-0.3-5.2-1.8-5.3-5.4c-0.1-5.6,0-11.2-0.1-16.8
	c-0.1-12.4-0.3-24.9-0.4-37.3C1096.2,434.5,1096.7,431.5,1097.1,428.2z"/>
<path class="st0" d="M1091.7,588.9c3.6,3.6,7.1,6.8,10.4,10.2c21.7,21.8,43.3,43.7,64.9,65.5c1.2,1.2,2.3,2.4,3.3,3.6
	c1.2,1.5,1.2,3,0,4.5c-0.7,0.8-1.4,1.6-2.2,2.4c-12.9,13-25.8,26-38.7,39c-1,1-2.2,2.1-3.5,2.7c-2.2,0.9-3.9-0.5-5.4-2
	c-6.3-6.3-12.6-12.6-18.8-18.9c-17.6-17.7-35.3-35.5-52.9-53.2c-0.1-0.1-0.2-0.2-0.3-0.3c-4.8-4.9-4.8-5.8,0-10.6
	c13.8-13.8,27.6-27.6,41.5-41.4C1090.4,589.9,1091,589.5,1091.7,588.9z"/>
<path class="st0" d="M496.3,669.3c26.9-26.8,53.7-53.3,80.6-80.1c3.1,3,6,5.7,8.8,8.4c11.7,11.7,23.4,23.4,35.1,35.1
	c3.9,3.9,4,6.4,0,10.4c-14.1,14-28.2,27.8-42.3,41.8c-9.6,9.5-19.2,19.1-28.8,28.6c-0.7,0.7-1.3,1.4-2.1,2c-2.2,1.7-3.3,1.7-5.4-0.1
	c-1.7-1.6-3.4-3.2-5-4.9c-13.1-13.2-26.3-26.3-39.4-39.5C497.5,670.6,497.1,670.1,496.3,669.3z"/>
<path class="st0" d="M582.9,165.1c2.2,0,3.5,0,4.9,0c16.4,0,32.8,0,49.2,0c6.6,0,7.1,0.5,7.1,6.9c0,35.8-0.1,71.6-0.2,107.5
	c0,5.3-1.1,6.4-6.6,6.4c-15.7,0-31.4,0-47.2,0c-5.9,0-7.5-1.6-7.5-7.6c0-34.5,0-68.9,0-103.4C582.6,171.9,582.8,168.8,582.9,165.1z"
	/>
<path class="st0" d="M799.7,704.4c0-14.4,0-28.7,0-43.1c0-1.1,0-2.2,0.1-3.3c0.2-2,1.5-3.2,3.5-3.4c1.1-0.1,2.2-0.1,3.3-0.1
	c18.7,0,37.5,0,56.2,0c1,0,1.9,0,2.9,0c3.1,0.3,4.4,1.4,5.1,4.4c0.3,1.3,0.3,2.7,0.3,4.1c0,28.8,0,57.7,0,86.5c0,1.1,0,2.2-0.2,3.3
	c-0.4,2.2-1.8,3.6-4.1,3.9c-1.1,0.1-2.2,0.1-3.3,0.1c-17.5,0-35,0-52.5,0c-1.6,0-3.3,0-4.9-0.2c-4.3-0.6-6-2.4-6.3-6.7
	c-0.1-1.9-0.1-3.8-0.1-5.7C799.6,730.9,799.6,717.6,799.7,704.4C799.6,704.4,799.7,704.4,799.7,704.4z"/>
<path class="st0" d="M454.3,292.8c2.1,0,3.7,0,5.3,0c33.3,0,66.7,0,100,0c3,0,6-0.2,9-0.2c4,0,5.5,1.4,5.4,5.4
	c-0.1,16.8-0.3,33.6-0.6,50.4c0,3.2-2,5-5.1,5.2c-1.8,0.1-3.5,0-5.3,0c-32.6,0-65.3,0-97.9,0c-2.2,0-4.4-0.1-6.5-0.5
	c-2.9-0.5-4.5-2.4-4.9-5.3c-0.2-1.2-0.2-2.5-0.2-3.7c0-13.7-0.1-27.3,0-41C453.6,299.8,454,296.6,454.3,292.8z"/>
<path class="st0" d="M1097,292.8c1.7,0,3,0,4.4,0c34.7,0,69.4,0,104.2,0c8.9,0,10.1,1.2,10.1,10.3c0,13.8,0,27.6,0,41.4
	c0,1,0,1.9,0,2.9c-0.2,4.8-1.5,6.1-6.2,6.1c-35,0-70,0-105,0c-6.2,0-8.3-2-8.3-8c-0.1-14.6-0.1-29.3,0-43.9
	C1096.1,298.8,1096.6,296.1,1097,292.8z"/>
<path class="st0" d="M715.5,706.2c0,14.4,0,28.7,0,43.1c0,1.2,0,2.5-0.1,3.7c-0.3,2.5-1.5,3.6-3.9,4c-0.8,0.1-1.6,0.1-2.5,0.1
	c-18.7,0-37.5-0.1-56.2-0.1c-0.8,0-1.6,0-2.5-0.1c-3.9-0.5-5.3-1.9-5.6-5.7c-0.2-2.3-0.2-4.6-0.2-7c0-26.5,0-53,0-79.6
	c0-2,0-4.1,0.2-6.1c0.3-2.7,1.2-3.6,3.9-3.8c1.1-0.1,2.2-0.1,3.3-0.1c18.3,0,36.6,0,55,0c1,0,1.9,0,2.9,0c3.9,0.3,5.4,1.7,5.5,5.7
	c0.2,5.6,0.1,11.2,0.1,16.8C715.6,686.8,715.5,696.5,715.5,706.2z"/>
<path class="st0" d="M1022.4,705.8c0,14.5,0,29,0,43.5c0,1.2,0,2.5-0.1,3.7c-0.3,2.7-1.4,3.8-4.2,4.1c-0.8,0.1-1.6,0-2.5,0
	c-17.8,0-35.5,0-53.3,0c-2,0-4.1,0-6.1-0.3c-2.6-0.3-3.5-1.4-3.9-4c-0.2-1.8-0.2-3.5-0.3-5.3c0-28.4,0-56.9,0-85.3
	c0-7.4,0.2-7.6,7.6-7.6c18,0,36.1,0,54.1,0c1,0,1.9,0,2.9,0c4.4,0.2,5.6,1.3,5.6,5.7c0.1,8.5,0.1,17,0.1,25.4
	C1022.4,692.4,1022.4,699.1,1022.4,705.8z"/>
<path class="st0" d="M917.3,417.6c-2.4,0-4.2,0-6,0c-49.5,0-98.9,0-148.4,0c-2.6,0-5.2,0.1-7.8-0.3c-4-0.6-4.7-1.8-4.6-5.8
	c0.1-3.3-0.2-6.5-0.1-9.8c0.1-3.7,0.6-4.3,4.3-4.3c7.1-0.1,14.2-0.1,21.3-0.1c0.7,0,1.4,0.1,2,0.1c2.6-0.2,3.4-0.9,3.6-3.5
	c0.2-1.9,0.1-3.8,0.1-5.7c0-5.9-0.1-11.7-0.1-17.6c0-4.4,1.1-5.6,5.6-5.7c11.9,0,23.8,0.1,35.7,0.1c19.1,0,38.3,0,57.4-0.1
	c1,0,1.9,0,2.9,0c2.9,0.2,3.6,0.7,3.8,3.6c0.2,3.5,0.4,7.1,0.5,10.6c0.1,4.2,0.1,8.5,0.2,12.7c0.1,4.7,0.7,5.4,5.5,5.5
	c5.3,0.1,10.7,0.1,16,0c7.7-0.1,8.9,1.1,8.3,8.7c-0.2,1.9-0.1,3.8-0.1,5.7C917.3,413.6,917.3,415.4,917.3,417.6z"/>
<path class="st0" d="M721.8,590.2c0-11.6,0-23.2,0-34.8c0-1.1,0-2.2,0.2-3.3c0.5-2.7,1.9-4,4.7-4.2c0.9-0.1,1.9,0,2.9,0
	c19,0,38,0,56.9,0c1.1,0,2.2-0.1,3.3,0.1c2.7,0.3,3.9,1.5,4.2,4.1c0.1,0.8,0.1,1.6,0.1,2.5c0.1,21.4,0.3,42.9,0.4,64.3
	c0,2.9-0.1,5.7-0.3,8.6c-0.2,3-1.3,4.1-4.3,4.6c-1.6,0.3-3.3,0.3-4.9,0.3c-18.3,0-36.6,0-54.9,0c-0.5,0-1.1,0-1.6,0
	c-4.5-0.2-5.7-1.4-5.9-6c-0.4-12-0.7-24-1.1-36C721.6,590.2,721.7,590.2,721.8,590.2z"/>
<path class="st0" d="M665.8,495.6c-28.6,0-56.9,0-85.7,0c0-1.7,0-3,0-4.3c0-19.7,0-39.4,0-59.1c0-1-0.1-1.9,0.1-2.9
	c0.3-2.3,1.4-3.3,3.7-3.6c0.8-0.1,1.6-0.1,2.5,0c24.1,0.3,48.1,0.5,72.2,0.8c5.6,0.1,7.5,1.7,7.5,6.9c0.1,20.5,0,41,0,61.5
	C666,495,665.9,495.2,665.8,495.6z"/>
<path class="st0" d="M870.3,591.1c0,12.2,0,24.3,0,36.5c0,4.9-0.9,5.6-5.9,5.1c-2.4-0.2-4.9-0.4-7.4-0.4c-16.7,0-33.3,0-50,0
	c-0.7,0-1.4,0-2,0c-4.7-0.2-6.2-1.6-6.1-6.3c0.2-18.7,0.5-37.4,0.7-56.2c0.1-4.8,0-9.6,0.1-14.3c0-1.5,0.1-3,0.4-4.5
	c0.3-1.8,1.3-3,3.3-3.1c1.2-0.1,2.5-0.2,3.7-0.2c19,0.1,38,0.1,57,0.2c1.1,0,2.2,0,3.2,0.3c2.7,0.9,3.1,3.1,3.1,5.6
	c0,10.9,0,21.9,0,32.8C870.3,588.1,870.3,589.6,870.3,591.1z"/>
<path class="st0" d="M1002.1,494.8c0-2.3,0-4.3,0-6.3c0.1-18.5,0.1-36.9,0.2-55.4c0-1,0-1.9,0-2.9c0.2-2.7,1-3.6,3.8-3.7
	c3.3-0.1,6.6,0,9.8,0c22.6,0,45.1,0,67.7,0c1.9,0,3.7,0.3,5.8,0.4c0,22.8,0,45.2,0,67.9C1060.3,494.8,1031.5,494.8,1002.1,494.8z"/>
<path class="st0" d="M875.1,589.9c0-11.6,0-23.2,0-34.8c0-1.2,0-2.5,0.1-3.7c0.2-2.1,1.4-3.2,3.4-3.4c1.1-0.1,2.2-0.1,3.3-0.1
	c18.9,0,37.7,0.1,56.6-0.1c5,0,7.2,1.4,7.2,7c0,16.5-0.1,33.1-0.2,49.6c0,6.7,0.1,13.4,0.1,20.1c0,1,0.1,1.9,0,2.9
	c-0.4,3.9-1.9,5.3-5.8,5.5c-1.9,0.1-3.8,0-5.7,0c-16.9,0-33.9,0-50.8,0c-1,0-1.9,0-2.9,0c-4.4-0.2-5.7-1.3-5.7-5.7
	c0-8.1,0.1-16.1,0.2-24.2c0-4.4,0-8.7,0-13.1C875,589.9,875,589.9,875.1,589.9z"/>
<path class="st0" d="M1089.3,568.4c-1.4-0.5-2.6-0.9-3.7-1.3c-25.8-10.2-51.5-20.4-77.3-30.6c-5.8-2.3-6.6-3.8-6.4-10.2
	c0.3-7.6,0.2-15.3,0.3-22.9c0.1-5.1,0.8-5.9,6-5.9c25.3,0,50.6,0,75.9,0c5,0,6,1,6,6c0,19.4,0,38.8,0,58.2
	C1090,563.8,1089.6,565.9,1089.3,568.4z"/>
<path class="st0" d="M622.7,497.5c11.6,0,23.2,0,34.8,0c0.8,0,1.6,0,2.5,0.1c3.8,0.3,5.1,1.6,5.2,5.4c0.1,8.7,0.1,17.5,0.3,26.2
	c0.1,4.4-2.4,6.3-5.9,7.8c-16.2,6.6-32.3,13.2-48.5,19.8c-8.1,3.3-16.2,6.7-24.2,10c-6,2.5-7,1.8-7-4.5c0-19.3,0-38.5,0-57.8
	c0-5.9,1.3-7.2,7.3-7.2c11.9,0,23.8,0,35.7,0C622.7,497.4,622.7,497.4,622.7,497.5z"/>
<path class="st0" d="M1046.1,423.6c-11.6,0-23.2,0-34.8,0c-0.8,0-1.6,0-2.5,0c-6-0.1-6.4-0.4-6.6-6.5c-0.2-7.5-0.2-15-0.4-22.5
	c-0.1-4.2,1.8-6.8,5.7-8.4c20.3-8.1,40.5-16.3,60.7-24.5c1.9-0.8,3.6-1.6,4.9-3.4c0.8-1.1,2.2-1.9,3.6-2.4c1.9-0.7,3.9-1.2,5.9-1.5
	c4.2-0.6,6.3,0.9,6.8,5.1c0.4,4.3,0.6,8.7,0.6,13.1c0,13.8-0.1,27.6-0.2,41.4c0,2-0.1,4.1-0.2,6.1c-0.1,1.9-1,3.1-3,3.2
	c-1.5,0.1-3,0.3-4.5,0.3C1070.1,423.6,1058.1,423.6,1046.1,423.6z"/>
<path class="st0" d="M652.1,631.6c0-4.2,0-8.3,0-12.4c0-0.8,0.4-1.6,0.7-2.3c5.5-11.9,11.1-23.7,16.5-35.7
	c4.2-9.2,8.2-18.5,12.3-27.7c2.4-5.3,4-6.2,9.8-6.1c7,0.1,13.9,0.1,20.9,0.2c1.1,0,2.2,0.1,3.3,0.2c2.1,0.3,3.6,1.4,3.9,3.6
	c0.3,1.9,0.5,3.8,0.5,5.7c0,18,0,36.1,0,54.1c0,5.2,0.3,10.4,0.4,15.6c0,4.1-1,5.2-5.1,5.2c-20.2,0.1-40.5,0-60.7,0
	C653.9,632,653.1,631.8,652.1,631.6z"/>
<path class="st0" d="M623.5,423.6c-11.5,0-23,0-34.4,0c-1.1,0-2.2,0-3.3,0c-4.5-0.2-5.6-1.2-5.6-5.6c0-19.3,0-38.5,0-57.8
	c0-4.8,1.2-5.8,6-6.4c4.7-0.6,8.4,0.7,10.8,4.9c1.2,2.1,3.2,2.9,5.2,3.7c18.5,7.7,37,15.4,55.6,23.1c1.3,0.5,2.5,1,3.8,1.6
	c2.9,1.5,4.7,3.9,4.7,7.2c0.1,8.5,0.1,16.9,0,25.4c0,2.7-1,3.6-3.8,3.9c-1.1,0.1-2.2,0.1-3.3,0.1
	C647.2,423.6,635.3,423.6,623.5,423.6z"/>
<path class="st0" d="M949.3,632c0-1.1-0.1-2-0.1-3c0-24.9,0-49.8,0-74.6c0-5.4,1.4-6.7,6.8-6.7c7.5,0,15,0.1,22.5,0
	c3.9-0.1,6.5,1.7,8,5.2c9.7,22.6,19.4,45.2,29.1,67.8c1.4,3.2,1.1,6.1-0.7,9c-1.2,1.8-2.8,2.9-5.1,2.9c-19.8,0-39.6-0.1-59.4-0.1
	C950.3,632.4,950,632.2,949.3,632z"/>
<path class="st0" d="M1155.7,535.1c16.8,0,33.6,0,50.4,0c7.9,0,9.4,1.5,9.5,9.2c0,6.5-0.1,13.1-0.3,19.6c-0.2,4.3-2.3,6-6.5,6
	c-33.7,0-67.5-0.1-101.2-0.1c-1.4,0-2.7,0.1-4.1-0.1c-5.4-0.5-7.3-2.6-7.4-8.3c0-6,0-12,0-18c0-1.1-0.1-2.2,0-3.3
	c0.2-3.1,1.4-4.5,4.4-4.9c1.5-0.2,3-0.2,4.5-0.2C1121.8,535.1,1138.7,535.1,1155.7,535.1z"/>
<path class="st0" d="M946.1,348.5c-1.8,0-3.2,0-4.5,0c-20.5,0-41,0-61.5,0c-8,0-9.7-1.6-9.7-9.5c0-12.4,0-24.9,0-37.3
	c0-1.2,0-2.5,0.1-3.7c0.3-2.9,1.6-4.1,4.4-4.4c1.1-0.1,2.2,0,3.3-0.1c20.1,0,40.2,0,60.2,0c6.3,0,7.6,1.2,7.6,7.7
	c0.1,13.1,0.1,26.2,0.1,39.3C946.1,343.1,946.1,345.5,946.1,348.5z"/>
<path class="st0" d="M1215.6,533.8c-2,0-3.5,0-5,0c-35.6,0-71.3,0-106.9,0c-7.3,0-7.6-0.2-7.5-7.6c0.1-7.1,0.3-14.2,0.5-21.3
	c0.1-4.5,1-5.6,5.6-5.6c8.2-0.1,16.4,0.1,24.6,0.1c25.5,0.1,51.1,0.1,76.6,0.1c1.8,0,3.6-0.1,5.3,0.1c4.6,0.3,6.7,2.1,6.8,6.6
	C1215.7,515.2,1215.6,524.2,1215.6,533.8z"/>
<path class="st0" d="M453.7,499.7c2.2,0,3.7,0,5.2,0c35.7,0.1,71.4,0.2,107,0.3c7.1,0,7.8,0.7,7.9,7.7c0.1,6.8,0.1,13.7,0,20.5
	c0,5-0.9,5.8-5.7,5.8c-36,0-71.9,0-107.9,0c-0.4,0-0.8,0-1.2,0c-4-0.2-5.4-1.5-5.4-5.5c0-6,0.1-12,0.1-18
	C453.7,507,453.7,503.6,453.7,499.7z"/>
<path class="st0" d="M833,348.5c-9.6,0-19.1,0-28.7,0c-1.1,0-2.2,0-3.3-0.1c-3.9-0.4-5.4-1.8-5.4-5.7c-0.1-6.8,0-13.7,0-20.5
	c0-7.4,0-14.8,0-22.1c0-4.9,1.4-6.3,6.4-6.3c19.8,0,39.6,0,59.4,0c6.3,0,8.1,1.8,8.1,8c0.1,13.7,0.1,27.3,0.1,41
	c0,4.6-1.2,5.7-5.9,5.7C853.5,348.5,843.3,348.5,833,348.5z"/>
<path class="st0" d="M573.1,568.7c-1.3,0.1-2.6,0.2-4,0.2c-34.6,0-69.1,0-103.7,0c-2.2,0-4.4-0.1-6.5-0.4c-3.5-0.5-5-2.2-5.3-5.7
	c-0.2-2-0.1-4.1-0.1-6.1c0-6.7,0-13.4,0-20.5c1.9-0.1,3.5-0.2,5.1-0.2c24.6,0,49.2,0,73.8,0c10.9,0,21.9-0.1,32.8-0.1
	c1.2,0,2.5,0,3.7,0.1c3.3,0.5,4.7,1.9,4.7,5.1c0.1,8.7,0,17.5,0,26.2C573.5,567.6,573.3,568,573.1,568.7z"/>
<path class="st0" d="M791.5,293.8c0,2.1,0,3.7,0,5.4c0.1,14.3,0.1,28.7,0.2,43c0,5-1.2,6.4-6.3,6.4c-19.4,0-38.8,0-58.2,0
	c-1.2,0-2.5-0.1-3.7-0.4c-2.3-0.5-3.5-1.9-4-4.2c-0.1-0.8-0.2-1.6-0.2-2.4c0-13.5,0-27.1-0.1-40.6c0-2.4,0.9-3.8,2.8-5
	c2.9-1.8,6.1-2.3,9.4-2.3c16.7,0,33.3,0.1,50,0.1C784.7,293.8,787.8,293.8,791.5,293.8z"/>
<path class="st0" d="M1036.5,371.1c-1-0.4-1.9-0.7-2.6-1.2c-1.5-1.1-3.1-2.3-4.5-3.6c-8.1-7.8-16-15.7-24.1-23.4
	c-3.2-3-3.8-6.1-1.9-9.9c0.3-0.6,0.5-1.3,0.8-1.9c3.4-10.3,8.9-19.3,16.7-26.9c2.7-2.7,5.2-5.6,7.8-8.4c3.4-3.6,4.9-3.8,8.5-0.5
	c10.3,9.2,20.5,18.4,30.8,27.6c4.9,4.4,9.8,8.7,14.7,13.1c1.1,1,2.2,2.1,3.2,3.2c1.2,1.4,1.2,3,0.1,4.5c-0.7,0.8-1.5,1.6-2.2,2.4
	c-5.5,5.4-11.9,9.5-18.9,12.8c-7.7,3.5-15.4,7-23.1,10.5C1039.9,370.1,1038.2,370.5,1036.5,371.1z"/>
<path class="st0" d="M454.5,571.5c40.2,0,79.9,0,119.9,0c-1.6,3.3-3.8,5.2-6.8,6.6c-15.6,6.9-31.2,13.7-46.7,20.8
	c-19.1,8.7-38.1,17.7-57.1,26.6c-1.2,0.6-2.5,1.2-3.7,1.7c-3.7,1.3-5.5,0.1-5.7-3.8c-0.2-6.1-0.4-12.3-0.4-18.4
	c-0.1-8.2-0.1-16.4,0-24.6C453.8,577.5,454.2,574.6,454.5,571.5z"/>
<path class="st0" d="M1094.7,571.7c1-0.3,1.9-0.7,2.9-0.8c1.9-0.2,3.8-0.2,5.7-0.2c34.6,0,69.2,0,103.7,0c0.4,0,0.8,0,1.2,0
	c4.9,0.1,6.4,1.5,6.5,6.3c0,0.3,0,0.5,0,0.8c0,14.9,0,29.8,0,44.7c0,5.5-1,6.1-6,3.9c-35.6-16.3-71.2-32.7-106.9-49
	c-1.7-0.8-3.5-1.6-5.1-2.6c-0.9-0.5-1.6-1.3-2.4-2C1094.6,572.5,1094.6,572.1,1094.7,571.7z"/>
<path class="st0" d="M587,755.5c-7.5-6.4-14.6-12.4-21.6-18.5c-4.5-3.9-9.1-7.9-13.6-11.9c-3.4-3-3.5-5-0.3-8.2
	c27.4-27.2,54.9-54.4,82.4-81.6c0.3-0.3,0.7-0.4,1.8-1.1c-0.9,3.7-1.2,6.9-2.3,9.8c-13.9,34.3-27.9,68.5-42,102.7
	C590.3,749.5,588.8,752.1,587,755.5z"/>
<path class="st0" d="M1034.1,634.6c2.2,2,4,3.5,5.7,5.2c24.2,24.5,48.4,49,72.5,73.5c1.5,1.6,3.1,3.1,4.6,4.7
	c3.5,3.6,3.4,5.1-0.3,8.4c-8.5,7.5-17.1,14.9-25.6,22.4c-1.5,1.3-3,2.8-4.5,4.1c-2.6,2.1-4.7,1.7-6.3-1.2c-0.5-0.8-0.8-1.7-1.2-2.6
	c-14.9-36.2-29.7-72.5-44.6-108.7c-0.4-1-0.9-2-1.1-3.1C1033.2,636.6,1033.7,635.9,1034.1,634.6z"/>
<path class="st0" d="M1090.3,579c1.6-2.4,3.1-1.5,4.6-0.8c10.5,4.7,20.9,9.4,31.4,14.1c25.7,11.7,51.5,23.3,77.2,35
	c1,0.5,2,0.9,3,1.4c4.1,2.2,4.5,4,1.4,7.6c-0.9,1-1.9,2-2.9,2.9c-7.2,6.9-14.4,13.8-21.6,20.7c-1,0.9-1.9,1.9-3,2.8
	c-2.9,2.5-5.1,2.6-7.9-0.1c-3.5-3.3-6.8-6.8-10.1-10.2c-18.7-19-37.5-37.9-56.2-56.9c-4.2-4.3-8.4-8.6-12.6-12.9
	C1092.4,581.7,1091.4,580.3,1090.3,579z"/>
<path class="st0" d="M590.4,754.7c2.5-5.7,4.6-10.8,6.8-15.9c13.3-31,26.6-61.9,39.9-92.9c0.7-1.7,1-4,4.4-2.7
	c0.2,2.4,0.7,5,0.7,7.7c0.1,31.8,0.1,63.6,0.1,95.5c0,1.9,0.1,3.8,0,5.7c-0.2,2.9-1.4,4.2-4.2,4.6c-0.7,0.1-1.4,0.1-2,0.1
	c-11.3-0.1-22.7,0-34-0.3C598.2,756.5,594.5,755.4,590.4,754.7z"/>
<path class="st0" d="M578.9,577.3c-2.7,3.5-5,7.4-8.1,10.5c-15.7,16.1-31.6,32.1-47.5,48.1c-8.3,8.4-16.4,16.8-24.7,25.2
	c-0.6,0.6-1.1,1.2-1.8,1.7c-2.9,2.3-4.9,2.3-7.6-0.1c-2-1.8-3.9-3.8-5.9-5.7c-7.2-7.1-14.4-14.1-21.6-21.3c-1.2-1.2-2.2-2.7-3.5-4.3
	c40.3-18.4,80.2-36.6,120.1-54.8C578.5,576.8,578.7,577.1,578.9,577.3z"/>
<path class="st0" d="M1030.1,642.5c16,37.9,32,75.6,48.2,113.8c-1.3,0.2-2.1,0.5-3,0.5c-13.9,0-27.9,0-41.8,0
	c-1.1,0-2.2-0.2-3.2-0.3c-2-0.4-3.1-1.6-3.3-3.6c-0.1-1.2-0.1-2.5-0.1-3.7c0-34,0-68,0-102c0-0.8,0-1.6,0-2.5
	C1026.8,642.9,1027.9,642.4,1030.1,642.5z"/>
<path class="st0" d="M948.2,294.9c1.8,0,3,0,4.3,0c18.2,0,36.3,0.1,54.5,0.1c2.5,0,5.1-0.1,6.3,2.7c1.4,3,1,6.1-0.3,9.1
	c-0.2,0.5-1,1.1-1.5,1.2c-2.9,0.5-3.8,2.8-4.8,5.1c-4,9.7-7.9,19.4-11.9,29.2c-2.3,5.7-3,6.2-9,6.2c-9,0-18,0-27,0
	c-1.1,0-2.2,0-3.3-0.1c-5.3-0.4-7.7-2.9-7.7-8.1c-0.1-13.8,0-27.6,0-41.4C947.7,297.7,948,296.5,948.2,294.9z"/>
<path class="st0" d="M1082.5,571.7c-6.6,5.7-12.6,10.8-18.5,16c-11,9.8-22,19.7-32.9,29.6c-1.9,1.7-3.8,3.5-5.9,5.1
	c-2.3,1.8-4.3,1.3-5.8-1.2c-0.4-0.7-0.7-1.5-1.1-2.2c-4.4-10-8.7-20-13.1-30c-2.1-4.9-1.8-5.9,2.1-9.6c8.6-8,17.2-16,25.8-24
	c4.1-3.8,5.1-4,10.2-1.8c10.5,4.7,21,9.3,31.4,14C1077.2,568.6,1079.5,570.1,1082.5,571.7z"/>
<path class="st0" d="M646.6,624.2c-5.8-5.1-11.1-9.8-16.4-14.5c-13.1-11.6-26.1-23.2-39.1-34.9c-5-4.4-4.7-5.8,1.4-8.3
	c10.2-4.2,20.4-8.4,30.6-12.7c4.6-1.9,8.7-1.7,12.5,1.9c7.5,7.1,15.2,14.1,22.7,21.3c6.8,6.6,6.9,8.1,2.9,16.8
	c-4,8.7-8,17.3-12.1,26C648.3,621.1,647.5,622.4,646.6,624.2z"/>
<path class="st0" d="M715.4,295.1c0,1.6,0,2.8,0,4c0,13.2,0,26.5,0,39.7c0,0.3,0,0.5,0,0.8c-0.1,7.1-1.6,8.6-8.7,8.6
	c-8.6,0-17.2,0-25.8,0c-5.8,0-8.1-1.7-10.2-7c-3.9-9.6-7.9-19.2-11.7-28.8c-0.7-1.7-1.2-3.2-3.2-3.9c-2.1-0.8-2.9-2.7-2.9-5
	c0-1.6-0.1-3.3-0.2-4.9c-0.1-2.1,0.8-3.3,2.9-3.7c0.8-0.2,1.6-0.1,2.4-0.1c18,0,36,0,54.1,0C713,294.9,713.9,295,715.4,295.1z"/>
</svg>
